<?xml version="1.0" encoding="utf-8"?>
<!-- Generator: Adobe Illustrator 16.0.3, SVG Export Plug-In . SVG Version: 6.00 Build 0)  -->
<!DOCTYPE svg PUBLIC "-//W3C//DTD SVG 1.1//EN" "http://www.w3.org/Graphics/SVG/1.1/DTD/svg11.dtd">
<svg version="1.1" id="Layer_1" xmlns="http://www.w3.org/2000/svg" xmlns:xlink="http://www.w3.org/1999/xlink" x="0px" y="0px"
	 width="400px" height="300px" viewBox="0 0 400 300" enable-background="new 0 0 400 300" xml:space="preserve">
<rect fill="#0071E3" width="400.001" height="300"/>
<g>
	<g transform="translate(57.977,493.928)">
		<g enable-background="new    ">
			<path fill="#FFFFFF" d="M-5.748-303.214v-31.667h7.817l16.291,21.149v-21.149h7.463v31.667h-8.063L1.717-323.864v20.649H-5.748z"
				/>
			<path fill="#FFFFFF" d="M29.189-318.853c0-3.225,0.604-5.933,1.818-8.121c0.904-1.612,2.14-3.061,3.705-4.343
				c1.564-1.281,3.28-2.231,5.145-2.853c2.479-0.833,5.339-1.252,8.58-1.252c5.863,0,10.554,1.448,14.075,4.342
				c3.519,2.894,5.28,6.919,5.28,12.077c0,5.111-1.748,9.11-5.241,11.999c-3.492,2.887-8.16,4.33-14.006,4.33
				c-5.918,0-10.624-1.437-14.117-4.309C30.934-309.856,29.189-313.812,29.189-318.853z M37.467-319.07
				c0,3.588,1.041,6.306,3.122,8.154c2.082,1.852,4.723,2.778,7.927,2.778c3.203,0,5.832-0.92,7.887-2.754
				c2.053-1.836,3.081-4.591,3.081-8.264c0-3.63-1-6.336-2.999-8.122c-2-1.785-4.657-2.681-7.968-2.681
				c-3.313,0-5.982,0.908-8.008,2.712C38.481-325.437,37.467-322.712,37.467-319.07z"/>
			<path fill="#FFFFFF" d="M79.517-303.214v-26.31H67.71v-5.357h31.625v5.357H87.553v26.31H79.517z"/>
			<path fill="#FFFFFF" d="M113.015-303.214v-31.667h27.283v5.357H121.05v7.495h16.614v5.357H121.05v13.457H113.015z"/>
			<path fill="#FFFFFF" d="M141.79-318.853c0-3.225,0.606-5.933,1.819-8.121c0.906-1.612,2.141-3.061,3.705-4.343
				c1.564-1.281,3.282-2.231,5.144-2.853c2.479-0.833,5.341-1.252,8.581-1.252c5.864,0,10.554,1.448,14.073,4.342
				c3.521,2.894,5.279,6.919,5.279,12.077c0,5.111-1.746,9.11-5.238,11.999c-3.495,2.887-8.162,4.33-14.007,4.33
				c-5.92,0-10.625-1.437-14.117-4.309C143.536-309.856,141.79-313.812,141.79-318.853z M150.07-319.07
				c0,3.588,1.04,6.306,3.121,8.154c2.082,1.852,4.727,2.778,7.928,2.778c3.204,0,5.831-0.92,7.886-2.754
				c2.055-1.836,3.082-4.591,3.082-8.264c0-3.63-0.999-6.336-3.001-8.122c-1.997-1.785-4.656-2.681-7.967-2.681
				c-3.312,0-5.979,0.908-8.007,2.712C151.083-325.437,150.07-322.712,150.07-319.07z"/>
			<path fill="#FFFFFF" d="M183.106-334.881h8.036v17.152c0,2.721,0.101,4.487,0.3,5.293c0.341,1.294,1.163,2.337,2.453,3.12
				c1.295,0.785,3.065,1.179,5.31,1.179c2.279,0,4.001-0.371,5.159-1.113c1.157-0.743,1.854-1.652,2.092-2.731
				c0.233-1.081,0.352-2.875,0.352-5.382v-17.518h8.034v16.634c0,3.802-0.216,6.487-0.652,8.059
				c-0.434,1.568-1.234,2.894-2.402,3.975c-1.166,1.079-2.727,1.94-4.683,2.58c-1.953,0.641-4.503,0.961-7.652,0.961
				c-3.801,0-6.682-0.35-8.648-1.048c-1.964-0.697-3.518-1.604-4.656-2.722c-1.14-1.116-1.893-2.286-2.254-3.509
				c-0.523-1.815-0.787-4.494-0.787-8.037V-334.881z"/>
			<path fill="#FFFFFF" d="M219.89-303.214v-31.667h7.819l16.289,21.149v-21.149h7.463v31.667h-8.061l-16.046-20.649v20.649H219.89z
				"/>
			<path fill="#FFFFFF" d="M256.427-334.881h14.688c3.312,0,5.838,0.203,7.576,0.606c2.335,0.548,4.332,1.518,5.997,2.915
				c1.666,1.397,2.932,3.109,3.803,5.131c0.867,2.022,1.304,4.519,1.304,7.484c0,2.606-0.41,4.854-1.224,6.74
				c-0.995,2.306-2.418,4.168-4.261,5.596c-1.395,1.081-3.276,1.923-5.648,2.526c-1.773,0.446-4.142,0.668-7.11,0.668h-15.124
				V-334.881z M264.465-329.524v20.976h5.999c2.244,0,3.863-0.101,4.858-0.304c1.306-0.258,2.385-0.697,3.244-1.314
				c0.861-0.62,1.563-1.643,2.104-3.06c0.543-1.419,0.813-3.351,0.813-5.801c0-2.444-0.271-4.324-0.813-5.636
				c-0.541-1.31-1.303-2.334-2.28-3.068s-2.221-1.229-3.718-1.49c-1.122-0.2-3.32-0.303-6.599-0.303H264.465z"/>
		</g>
	</g>
	<g enable-background="new    ">
		<path fill="#FFFFFF" d="M68.11,224.51l3.727-0.266c0.224,0.926,0.68,1.605,1.365,2.038c0.686,0.438,1.61,0.653,2.775,0.653
			c1.233,0,2.163-0.194,2.789-0.579c0.625-0.388,0.938-0.838,0.938-1.354c0-0.336-0.133-0.62-0.396-0.854
			c-0.263-0.23-0.723-0.436-1.377-0.605c-0.45-0.117-1.471-0.322-3.067-0.613c-2.054-0.378-3.496-0.841-4.322-1.392
			c-1.164-0.773-1.747-1.716-1.747-2.827c0-0.716,0.274-1.385,0.82-2.008c0.55-0.621,1.339-1.098,2.371-1.424
			c1.028-0.325,2.272-0.489,3.732-0.489c2.38,0,4.172,0.387,5.377,1.16c1.202,0.775,1.834,1.807,1.895,3.098l-3.829,0.124
			c-0.166-0.722-0.516-1.241-1.056-1.558c-0.538-0.317-1.349-0.475-2.426-0.475c-1.115,0-1.983,0.17-2.614,0.508
			c-0.406,0.216-0.609,0.508-0.609,0.872c0,0.333,0.191,0.617,0.571,0.854c0.483,0.299,1.655,0.612,3.519,0.938
			c1.865,0.326,3.241,0.661,4.136,1.012c0.892,0.348,1.59,0.821,2.096,1.427c0.505,0.604,0.756,1.351,0.756,2.238
			c0,0.804-0.301,1.56-0.905,2.262s-1.457,1.224-2.562,1.568c-1.102,0.341-2.482,0.512-4.127,0.512
			c-2.399,0-4.241-0.409-5.527-1.232C69.128,227.28,68.361,226.081,68.11,224.51z"/>
		<path fill="#FFFFFF" d="M84.644,223.852c0-0.896,0.297-1.762,0.894-2.599c0.595-0.838,1.439-1.476,2.529-1.918
			c1.092-0.44,2.312-0.661,3.656-0.661c2.08,0,3.781,0.501,5.112,1.5c1.328,1,1.992,2.266,1.992,3.792
			c0,1.538-0.671,2.816-2.013,3.828c-1.341,1.013-3.029,1.519-5.064,1.519c-1.261,0-2.464-0.211-3.605-0.633
			c-1.143-0.422-2.013-1.04-2.607-1.854C84.94,226.01,84.644,225.018,84.644,223.852z M88.37,223.992
			c0,1.013,0.324,1.784,0.971,2.319c0.647,0.538,1.447,0.805,2.395,0.805c0.949,0,1.744-0.267,2.389-0.805
			c0.642-0.535,0.963-1.316,0.963-2.338c0-0.997-0.321-1.764-0.963-2.301c-0.645-0.536-1.439-0.803-2.389-0.803
			c-0.947,0-1.747,0.267-2.395,0.803C88.694,222.21,88.37,222.983,88.37,223.992z"/>
		<path fill="#FFFFFF" d="M103.91,229.083h-3.637v-10.178h3.377v1.445c0.579-0.683,1.098-1.133,1.561-1.351
			c0.46-0.216,0.984-0.326,1.571-0.326c0.828,0,1.626,0.167,2.394,0.508l-1.125,2.35c-0.612-0.295-1.183-0.441-1.709-0.441
			c-0.51,0-0.941,0.103-1.294,0.312c-0.354,0.205-0.632,0.582-0.834,1.127c-0.204,0.544-0.304,1.68-0.304,3.41V229.083z"/>
		<path fill="#FFFFFF" d="M112.978,229.083h-3.636v-10.178h3.376v1.445c0.58-0.683,1.1-1.133,1.56-1.351
			c0.463-0.216,0.986-0.326,1.573-0.326c0.828,0,1.624,0.167,2.394,0.508l-1.126,2.35c-0.614-0.295-1.181-0.441-1.709-0.441
			c-0.507,0-0.94,0.103-1.292,0.312c-0.354,0.205-0.633,0.582-0.835,1.127c-0.203,0.544-0.305,1.68-0.305,3.41V229.083z"/>
		<path fill="#FFFFFF" d="M116.843,218.905h3.868l3.287,7.225l3.21-7.225h3.765l-4.852,9.795l-0.865,1.772
			c-0.322,0.595-0.625,1.048-0.914,1.362c-0.288,0.312-0.621,0.564-0.997,0.761c-0.374,0.193-0.836,0.346-1.383,0.456
			c-0.549,0.107-1.169,0.162-1.857,0.162c-0.698,0-1.385-0.055-2.059-0.162l-0.323-2.109c0.567,0.084,1.084,0.125,1.54,0.125
			c0.846,0,1.472-0.186,1.877-0.552c0.405-0.368,0.715-0.838,0.933-1.404L116.843,218.905z"/>
		<path fill="#FFFFFF" d="M130.001,226.392h3.636v1.924c0,0.779-0.091,1.395-0.271,1.845c-0.184,0.45-0.524,0.856-1.03,1.213
			c-0.506,0.357-1.146,0.638-1.921,0.846l-0.713-1.114c0.732-0.18,1.255-0.424,1.565-0.737c0.312-0.313,0.476-0.743,0.491-1.284
			h-1.758V226.392z"/>
		<path fill="#FFFFFF" d="M142.171,229.083v-14.052h3.635v5.062c1.123-0.945,2.451-1.419,3.987-1.419
			c1.673,0,3.059,0.448,4.152,1.347c1.097,0.898,1.644,2.188,1.644,3.866c0,1.74-0.558,3.079-1.676,4.017
			c-1.117,0.939-2.475,1.409-4.068,1.409c-0.785,0-1.561-0.146-2.322-0.437c-0.765-0.29-1.423-0.721-1.975-1.289v1.496H142.171z
			 M145.781,223.771c0,1.055,0.225,1.836,0.673,2.339c0.629,0.717,1.466,1.075,2.512,1.075c0.801,0,1.483-0.255,2.05-0.763
			c0.563-0.506,0.848-1.307,0.848-2.401c0-1.163-0.286-2.003-0.856-2.516c-0.568-0.514-1.298-0.771-2.186-0.771
			c-0.872,0-1.597,0.253-2.174,0.754C146.071,221.987,145.781,222.751,145.781,223.771z"/>
		<path fill="#FFFFFF" d="M166.313,229.083v-1.524c-0.498,0.544-1.157,0.971-1.972,1.284s-1.675,0.47-2.581,0.47
			c-0.926,0-1.752-0.151-2.485-0.45c-0.733-0.303-1.264-0.722-1.592-1.267c-0.329-0.541-0.493-1.293-0.493-2.249v-6.441h3.639v4.676
			c0,1.432,0.065,2.311,0.199,2.629c0.133,0.324,0.377,0.581,0.732,0.768c0.353,0.189,0.802,0.284,1.345,0.284
			c0.622,0,1.177-0.128,1.669-0.379c0.493-0.253,0.827-0.564,1.01-0.939c0.18-0.372,0.271-1.288,0.271-2.747v-4.291h3.636v10.178
			H166.313z"/>
		<path fill="#FFFFFF" d="M178.513,218.905v2.147h-2.484v4.1c0,0.83,0.024,1.315,0.071,1.452c0.046,0.137,0.155,0.252,0.322,0.34
			c0.171,0.09,0.374,0.134,0.617,0.134c0.334,0,0.822-0.085,1.461-0.258l0.311,2.09c-0.845,0.269-1.803,0.402-2.872,0.402
			c-0.654,0-1.247-0.081-1.773-0.244c-0.525-0.163-0.914-0.374-1.158-0.632c-0.246-0.26-0.416-0.61-0.51-1.05
			c-0.078-0.313-0.118-0.945-0.118-1.898v-4.436h-1.67v-2.147h1.67v-2.024l3.649-1.571v3.596H178.513z"/>
		<path fill="#FFFFFF" d="M192.21,218.905v2.147h-2.485v4.1c0,0.83,0.025,1.315,0.073,1.452c0.047,0.137,0.154,0.252,0.322,0.34
			c0.169,0.09,0.374,0.134,0.615,0.134c0.337,0,0.824-0.085,1.463-0.258l0.309,2.09c-0.845,0.269-1.802,0.402-2.872,0.402
			c-0.655,0-1.246-0.081-1.771-0.244s-0.914-0.374-1.158-0.632c-0.246-0.26-0.418-0.61-0.512-1.05
			c-0.077-0.313-0.117-0.945-0.117-1.898v-4.436h-1.669v-2.147h1.669v-2.024l3.648-1.571v3.596H192.21z"/>
		<path fill="#FFFFFF" d="M197.11,215.031v5.168c1.175-1.018,2.574-1.525,4.206-1.525c0.837,0,1.593,0.116,2.266,0.346
			s1.178,0.524,1.517,0.882c0.343,0.358,0.578,0.754,0.703,1.188c0.123,0.434,0.186,1.109,0.186,2.02v5.974h-3.636v-5.376
			c0-1.069-0.07-1.747-0.208-2.034c-0.138-0.285-0.38-0.513-0.729-0.684c-0.351-0.17-0.787-0.255-1.313-0.255
			c-0.606,0-1.144,0.109-1.616,0.326c-0.478,0.216-0.825,0.544-1.043,0.982c-0.221,0.438-0.332,1.085-0.332,1.942v5.098h-3.638
			v-14.052H197.11z"/>
		<path fill="#FFFFFF" d="M216.391,225.844l3.622,0.452c-0.466,0.98-1.2,1.732-2.204,2.245c-1.007,0.515-2.267,0.771-3.774,0.771
			c-2.391,0-4.158-0.58-5.306-1.735c-0.905-0.925-1.357-2.093-1.357-3.508c0-1.688,0.595-3.006,1.785-3.963
			c1.19-0.956,2.694-1.433,4.517-1.433c2.042,0,3.656,0.501,4.837,1.5c1.184,1,1.748,2.531,1.698,4.597h-9.112
			c0.029,0.797,0.319,1.42,0.882,1.862c0.56,0.445,1.259,0.666,2.094,0.666c0.571,0,1.049-0.113,1.438-0.343
			S216.19,226.356,216.391,225.844z M216.595,223.122c-0.024-0.781-0.295-1.374-0.814-1.781c-0.519-0.403-1.146-0.606-1.888-0.606
			c-0.795,0-1.449,0.214-1.969,0.643c-0.517,0.43-0.771,1.01-0.762,1.745H216.595z"/>
		<path fill="#FFFFFF" d="M227.938,218.905h3.39v1.495c0.441-0.512,1.036-0.929,1.787-1.247c0.75-0.32,1.58-0.479,2.496-0.479
			c1.597,0,2.95,0.464,4.063,1.39c1.114,0.929,1.67,2.219,1.67,3.87c0,1.702-0.561,3.022-1.684,3.965
			c-1.12,0.944-2.479,1.414-4.072,1.414c-0.762,0-1.448-0.114-2.067-0.337c-0.617-0.222-1.263-0.605-1.947-1.149v5.129h-3.635
			V218.905z M231.535,223.821c0,1.145,0.307,1.988,0.917,2.535c0.617,0.546,1.358,0.817,2.24,0.817c0.846,0,1.549-0.249,2.109-0.751
			c0.56-0.502,0.842-1.323,0.842-2.467c0-1.067-0.288-1.859-0.868-2.38c-0.576-0.516-1.293-0.772-2.145-0.772
			c-0.891,0-1.63,0.252-2.215,0.76C231.827,222.069,231.535,222.826,231.535,223.821z"/>
		<path fill="#FFFFFF" d="M245.702,222.008l-3.301-0.438c0.37-0.984,1.012-1.713,1.917-2.186c0.906-0.472,2.251-0.71,4.037-0.71
			c1.622,0,2.83,0.142,3.623,0.426c0.792,0.287,1.353,0.647,1.673,1.084c0.327,0.438,0.488,1.241,0.488,2.41l-0.039,3.142
			c0,0.895,0.059,1.558,0.175,1.98c0.115,0.427,0.334,0.883,0.654,1.367h-3.599c-0.095-0.18-0.209-0.443-0.351-0.796
			c-0.06-0.161-0.102-0.266-0.13-0.315c-0.619,0.446-1.286,0.782-1.994,1.004c-0.705,0.223-1.458,0.337-2.263,0.337
			c-1.413,0-2.528-0.285-3.345-0.853c-0.813-0.567-1.22-1.288-1.22-2.157c0-0.576,0.184-1.088,0.552-1.537
			c0.374-0.453,0.893-0.798,1.563-1.033c0.667-0.243,1.631-0.453,2.891-0.629c1.699-0.238,2.876-0.458,3.532-0.661v-0.27
			c0-0.517-0.173-0.885-0.515-1.106c-0.346-0.221-0.998-0.332-1.956-0.332c-0.646,0-1.152,0.094-1.514,0.283
			C246.22,221.205,245.926,221.536,245.702,222.008z M250.566,224.194c-0.464,0.117-1.199,0.254-2.211,0.414
			c-1.009,0.157-1.671,0.314-1.98,0.467c-0.476,0.25-0.711,0.565-0.711,0.948c0,0.377,0.188,0.705,0.569,0.979
			c0.38,0.273,0.861,0.411,1.447,0.411c0.656,0,1.281-0.157,1.879-0.479c0.437-0.243,0.728-0.54,0.865-0.893
			c0.093-0.226,0.142-0.666,0.142-1.313V224.194z"/>
		<path fill="#FFFFFF" d="M256.143,229.755l4.154,0.372c0.069,0.358,0.227,0.604,0.478,0.737c0.343,0.191,0.888,0.289,1.629,0.289
			c0.95,0,1.661-0.106,2.139-0.315c0.317-0.143,0.561-0.37,0.724-0.682c0.11-0.224,0.167-0.636,0.167-1.236v-1.487
			c-1.087,1.101-2.458,1.65-4.115,1.65c-1.846,0-3.308-0.578-4.386-1.734c-0.844-0.913-1.27-2.052-1.27-3.415
			c0-1.703,0.555-3.009,1.663-3.908c1.108-0.901,2.488-1.352,4.134-1.352c1.703,0,3.103,0.554,4.207,1.659v-1.428h3.402v9.132
			c0,1.201-0.133,2.102-0.4,2.694c-0.269,0.595-0.642,1.059-1.125,1.4c-0.483,0.336-1.129,0.604-1.936,0.796
			c-0.807,0.192-1.828,0.286-3.06,0.286c-2.33,0-3.983-0.297-4.956-0.887c-0.977-0.591-1.464-1.342-1.464-2.247
			C256.128,229.991,256.136,229.881,256.143,229.755z M259.391,223.783c0,1.079,0.279,1.87,0.846,2.37
			c0.566,0.505,1.261,0.754,2.093,0.754c0.888,0,1.636-0.257,2.247-0.771c0.613-0.514,0.924-1.276,0.924-2.284
			c0-1.057-0.296-1.839-0.882-2.351c-0.588-0.509-1.332-0.767-2.225-0.767c-0.873,0-1.591,0.253-2.157,0.754
			C259.67,221.987,259.391,222.752,259.391,223.783z"/>
		<path fill="#FFFFFF" d="M279.38,225.844l3.623,0.452c-0.469,0.98-1.202,1.732-2.208,2.245c-1.003,0.515-2.262,0.771-3.771,0.771
			c-2.391,0-4.157-0.58-5.308-1.735c-0.903-0.925-1.358-2.093-1.358-3.508c0-1.688,0.597-3.006,1.785-3.963
			c1.19-0.956,2.699-1.433,4.52-1.433c2.044,0,3.656,0.501,4.84,1.5c1.18,1,1.745,2.531,1.693,4.597h-9.107
			c0.021,0.797,0.318,1.42,0.879,1.862c0.558,0.445,1.259,0.666,2.097,0.666c0.565,0,1.046-0.113,1.436-0.343
			C278.887,226.727,279.181,226.356,279.38,225.844z M279.588,223.122c-0.029-0.781-0.299-1.374-0.818-1.781
			c-0.515-0.403-1.147-0.606-1.888-0.606c-0.792,0-1.451,0.214-1.966,0.643c-0.519,0.43-0.774,1.01-0.765,1.745H279.588z"/>
		<path fill="#FFFFFF" d="M289.311,218.905h3.871l3.284,7.225l3.212-7.225h3.765l-4.855,9.795l-0.863,1.772
			c-0.321,0.595-0.625,1.048-0.913,1.362c-0.287,0.312-0.622,0.564-0.999,0.761c-0.371,0.193-0.835,0.346-1.381,0.456
			c-0.553,0.107-1.169,0.162-1.859,0.162c-0.699,0-1.381-0.055-2.058-0.162l-0.323-2.109c0.569,0.084,1.082,0.125,1.539,0.125
			c0.846,0,1.474-0.186,1.876-0.552c0.406-0.368,0.718-0.838,0.933-1.404L289.311,218.905z"/>
		<path fill="#FFFFFF" d="M303.683,223.852c0-0.896,0.298-1.762,0.892-2.599c0.598-0.838,1.44-1.476,2.531-1.918
			c1.093-0.44,2.309-0.661,3.657-0.661c2.078,0,3.783,0.501,5.111,1.5c1.327,1,1.991,2.266,1.991,3.792
			c0,1.538-0.667,2.816-2.012,3.828c-1.342,1.013-3.03,1.519-5.065,1.519c-1.259,0-2.463-0.211-3.601-0.633
			c-1.145-0.422-2.016-1.04-2.613-1.854C303.98,226.01,303.683,225.018,303.683,223.852z M307.41,223.992
			c0,1.013,0.325,1.784,0.972,2.319c0.646,0.538,1.445,0.805,2.395,0.805c0.948,0,1.742-0.267,2.387-0.805
			c0.643-0.535,0.965-1.316,0.965-2.338c0-0.997-0.322-1.764-0.965-2.301c-0.645-0.536-1.438-0.803-2.387-0.803
			c-0.949,0-1.748,0.267-2.395,0.803C307.735,222.21,307.41,222.983,307.41,223.992z"/>
		<path fill="#FFFFFF" d="M328.513,229.083v-1.524c-0.498,0.544-1.156,0.971-1.975,1.284c-0.813,0.313-1.674,0.47-2.577,0.47
			c-0.929,0-1.755-0.151-2.485-0.45c-0.736-0.303-1.266-0.722-1.593-1.267c-0.331-0.541-0.492-1.293-0.492-2.249v-6.441h3.635v4.676
			c0,1.432,0.068,2.311,0.202,2.629c0.131,0.324,0.377,0.581,0.733,0.768c0.354,0.189,0.798,0.284,1.342,0.284
			c0.622,0,1.179-0.128,1.669-0.379c0.493-0.253,0.828-0.564,1.012-0.939c0.18-0.372,0.271-1.288,0.271-2.747v-4.291h3.636v10.178
			H328.513z"/>
	</g>
	<g enable-background="new    ">
		<path fill="#FFFFFF" d="M60.582,251.602h-3.636v-10.176h3.377v1.448c0.579-0.685,1.098-1.134,1.56-1.35
			c0.461-0.219,0.984-0.326,1.571-0.326c0.829,0,1.628,0.169,2.395,0.508l-1.125,2.349c-0.613-0.294-1.184-0.444-1.708-0.444
			c-0.509,0-0.939,0.104-1.294,0.315c-0.354,0.204-0.633,0.582-0.834,1.123c-0.203,0.544-0.305,1.682-0.305,3.411V251.602z"/>
		<path fill="#FFFFFF" d="M74.127,248.366l3.624,0.449c-0.466,0.986-1.2,1.733-2.207,2.247c-1.004,0.514-2.261,0.775-3.771,0.775
			c-2.39,0-4.159-0.583-5.305-1.737c-0.905-0.928-1.359-2.094-1.359-3.509c0-1.688,0.596-3.008,1.787-3.963
			c1.191-0.954,2.695-1.431,4.516-1.431c2.044,0,3.658,0.496,4.84,1.496c1.181,1.003,1.747,2.533,1.694,4.599h-9.11
			c0.026,0.8,0.318,1.42,0.879,1.863c0.562,0.445,1.26,0.666,2.096,0.666c0.571,0,1.049-0.114,1.436-0.345
			C73.637,249.247,73.93,248.876,74.127,248.366z M74.333,245.645c-0.023-0.78-0.297-1.372-0.813-1.779
			c-0.519-0.405-1.147-0.606-1.891-0.606c-0.794,0-1.449,0.213-1.966,0.639c-0.519,0.43-0.772,1.012-0.763,1.747H74.333z"/>
		<path fill="#FFFFFF" d="M88.644,255.479v-5.121c-0.475,0.455-1.065,0.816-1.773,1.079c-0.708,0.267-1.47,0.4-2.29,0.4
			c-1.563,0-2.848-0.438-3.857-1.307c-1.189-1.015-1.784-2.395-1.784-4.131c0-1.635,0.558-2.91,1.673-3.826
			c1.117-0.919,2.505-1.376,4.161-1.376c0.915,0,1.707,0.143,2.375,0.43c0.669,0.288,1.262,0.722,1.779,1.306v-1.508h3.352v14.054
			H88.644z M88.758,246.392c0-1.042-0.287-1.817-0.86-2.324c-0.573-0.51-1.291-0.763-2.155-0.763c-0.879,0-1.614,0.261-2.204,0.778
			c-0.591,0.516-0.887,1.337-0.887,2.46c0,1.119,0.284,1.929,0.854,2.422c0.569,0.495,1.272,0.743,2.109,0.743
			c0.837,0,1.572-0.279,2.202-0.835C88.446,248.316,88.758,247.49,88.758,246.392z"/>
		<path fill="#FFFFFF" d="M103.651,251.602v-1.52c-0.5,0.544-1.158,0.97-1.972,1.283c-0.816,0.314-1.677,0.473-2.583,0.473
			c-0.923,0-1.75-0.153-2.485-0.454c-0.733-0.302-1.264-0.719-1.592-1.265c-0.327-0.544-0.491-1.293-0.491-2.252v-6.441h3.637v4.677
			c0,1.432,0.065,2.312,0.199,2.632c0.136,0.323,0.377,0.579,0.733,0.768c0.353,0.188,0.803,0.283,1.347,0.283
			c0.62,0,1.176-0.128,1.668-0.379c0.492-0.255,0.826-0.566,1.008-0.94c0.18-0.372,0.271-1.288,0.271-2.746v-4.294h3.637v10.176
			H103.651z"/>
		<path fill="#FFFFFF" d="M117.507,248.366l3.623,0.449c-0.466,0.986-1.201,1.733-2.205,2.247c-1.005,0.514-2.263,0.775-3.774,0.775
			c-2.389,0-4.156-0.583-5.305-1.737c-0.906-0.928-1.357-2.094-1.357-3.509c0-1.688,0.594-3.008,1.785-3.963
			c1.189-0.954,2.696-1.431,4.517-1.431c2.044,0,3.657,0.496,4.837,1.496c1.183,1.003,1.749,2.533,1.697,4.599h-9.11
			c0.025,0.8,0.318,1.42,0.879,1.863c0.562,0.445,1.26,0.666,2.097,0.666c0.57,0,1.048-0.114,1.435-0.345
			C117.015,249.247,117.308,248.876,117.507,248.366z M117.713,245.645c-0.025-0.78-0.298-1.372-0.815-1.779
			c-0.516-0.405-1.147-0.606-1.889-0.606c-0.793,0-1.45,0.213-1.968,0.639c-0.516,0.43-0.771,1.012-0.762,1.747H117.713z"/>
		<path fill="#FFFFFF" d="M121.761,248.7l3.649-0.411c0.154,0.524,0.47,0.923,0.944,1.193c0.475,0.271,1.138,0.407,1.994,0.407
			c0.939,0,1.647-0.128,2.123-0.383c0.318-0.179,0.478-0.42,0.478-0.72c0-0.202-0.084-0.373-0.26-0.508
			c-0.181-0.128-0.585-0.245-1.215-0.354c-2.934-0.48-4.791-0.917-5.577-1.313c-1.087-0.55-1.63-1.311-1.63-2.291
			c0-0.882,0.47-1.621,1.411-2.223c0.939-0.602,2.398-0.9,4.373-0.9c1.882,0,3.277,0.225,4.194,0.68
			c0.913,0.453,1.543,1.124,1.886,2.013l-3.426,0.468c-0.148-0.396-0.425-0.697-0.835-0.908c-0.41-0.212-0.995-0.319-1.754-0.319
			c-0.957,0-1.643,0.101-2.057,0.299c-0.276,0.141-0.416,0.321-0.416,0.547c0,0.192,0.121,0.353,0.363,0.49
			c0.328,0.177,1.46,0.431,3.395,0.753c1.938,0.327,3.291,0.728,4.058,1.2c0.759,0.479,1.14,1.147,1.14,2.003
			c0,0.932-0.527,1.734-1.58,2.406c-1.052,0.671-2.61,1.009-4.67,1.009c-1.872,0-3.355-0.282-4.445-0.845
			C122.811,250.429,122.097,249.667,121.761,248.7z"/>
		<path fill="#FFFFFF" d="M142.837,241.426v2.149h-2.483v4.101c0,0.831,0.023,1.316,0.069,1.452c0.049,0.137,0.157,0.251,0.326,0.34
			c0.167,0.089,0.371,0.134,0.614,0.134c0.336,0,0.824-0.085,1.462-0.258l0.31,2.089c-0.846,0.27-1.803,0.405-2.874,0.405
			c-0.656,0-1.244-0.083-1.771-0.246c-0.527-0.164-0.913-0.375-1.158-0.634c-0.248-0.259-0.417-0.609-0.513-1.05
			c-0.078-0.311-0.116-0.943-0.116-1.897v-4.436h-1.669v-2.149h1.669v-2.021l3.65-1.573v3.594H142.837z"/>
		<path fill="#FFFFFF" d="M152.072,248.366l3.624,0.449c-0.465,0.986-1.201,1.733-2.205,2.247c-1.005,0.514-2.263,0.775-3.773,0.775
			c-2.389,0-4.158-0.583-5.305-1.737c-0.906-0.928-1.358-2.094-1.358-3.509c0-1.688,0.595-3.008,1.787-3.963
			c1.189-0.954,2.696-1.431,4.515-1.431c2.044,0,3.658,0.496,4.84,1.496c1.182,1.003,1.747,2.533,1.696,4.599h-9.111
			c0.027,0.8,0.32,1.42,0.879,1.863c0.561,0.445,1.261,0.666,2.097,0.666c0.569,0,1.049-0.114,1.437-0.345
			C151.582,249.247,151.875,248.876,152.072,248.366z M152.28,245.645c-0.027-0.78-0.298-1.372-0.815-1.779
			c-0.516-0.405-1.147-0.606-1.889-0.606c-0.794,0-1.45,0.213-1.968,0.639c-0.516,0.43-0.771,1.012-0.765,1.747H152.28z"/>
		<path fill="#FFFFFF" d="M170.212,251.602h-3.378v-1.491c-0.56,0.582-1.223,1.015-1.985,1.298c-0.764,0.283-1.534,0.43-2.311,0.43
			c-1.578,0-2.931-0.475-4.057-1.417c-1.125-0.94-1.687-2.256-1.687-3.944c0-1.723,0.547-3.036,1.643-3.936
			c1.094-0.896,2.479-1.343,4.154-1.343c1.536,0,2.863,0.471,3.985,1.419v-5.063h3.636V251.602z M160.507,246.295
			c0,1.088,0.202,1.874,0.607,2.358c0.587,0.701,1.408,1.055,2.46,1.055c0.836,0,1.549-0.264,2.135-0.793
			c0.585-0.525,0.88-1.313,0.88-2.36c0-1.171-0.285-2.012-0.854-2.524c-0.568-0.516-1.299-0.771-2.186-0.771
			c-0.864,0-1.585,0.254-2.169,0.759C160.798,244.53,160.507,245.285,160.507,246.295z"/>
		<path fill="#FFFFFF" d="M191.271,251.602h-3.377v-1.491c-0.559,0.582-1.222,1.015-1.987,1.298c-0.761,0.283-1.532,0.43-2.311,0.43
			c-1.576,0-2.93-0.475-4.054-1.417c-1.128-0.94-1.69-2.256-1.69-3.944c0-1.723,0.547-3.036,1.643-3.936
			c1.095-0.896,2.48-1.343,4.155-1.343c1.535,0,2.864,0.471,3.984,1.419v-5.063h3.636V251.602z M181.569,246.295
			c0,1.088,0.201,1.874,0.606,2.358c0.586,0.701,1.405,1.055,2.459,1.055c0.836,0,1.547-0.264,2.133-0.793
			c0.589-0.525,0.881-1.313,0.881-2.36c0-1.171-0.284-2.012-0.853-2.524c-0.571-0.516-1.299-0.771-2.188-0.771
			c-0.864,0-1.586,0.254-2.167,0.759C181.858,244.53,181.569,245.285,181.569,246.295z"/>
		<path fill="#FFFFFF" d="M192.772,246.371c0-0.894,0.295-1.759,0.893-2.599c0.593-0.833,1.437-1.474,2.528-1.914
			c1.093-0.44,2.31-0.66,3.657-0.66c2.077,0,3.78,0.496,5.108,1.496c1.332,1.003,1.993,2.266,1.993,3.793
			c0,1.54-0.669,2.817-2.01,3.828c-1.343,1.016-3.03,1.522-5.066,1.522c-1.259,0-2.462-0.214-3.604-0.638
			c-1.145-0.42-2.014-1.037-2.607-1.853C193.067,248.532,192.772,247.544,192.772,246.371z M196.496,246.516
			c0,1.011,0.324,1.782,0.97,2.319c0.648,0.538,1.445,0.806,2.396,0.806c0.949,0,1.743-0.268,2.39-0.806
			c0.64-0.537,0.963-1.315,0.963-2.339c0-0.994-0.323-1.765-0.963-2.299c-0.646-0.536-1.44-0.806-2.39-0.806
			c-0.95,0-1.747,0.27-2.396,0.806C196.82,244.731,196.496,245.506,196.496,246.516z"/>
		<path fill="#FFFFFF" d="M216.511,248.366l3.626,0.449c-0.468,0.986-1.203,1.733-2.208,2.247s-2.262,0.775-3.771,0.775
			c-2.392,0-4.158-0.583-5.305-1.737c-0.908-0.928-1.36-2.094-1.36-3.509c0-1.688,0.596-3.008,1.785-3.963
			c1.19-0.954,2.698-1.431,4.518-1.431c2.045,0,3.659,0.496,4.843,1.496c1.179,1.003,1.743,2.533,1.693,4.599h-9.112
			c0.026,0.8,0.317,1.42,0.881,1.863c0.561,0.445,1.261,0.666,2.095,0.666c0.57,0,1.05-0.114,1.437-0.345
			C216.02,249.247,216.311,248.876,216.511,248.366z M216.719,245.645c-0.025-0.78-0.298-1.372-0.815-1.779
			c-0.518-0.405-1.148-0.606-1.89-0.606c-0.793,0-1.446,0.213-1.965,0.639c-0.517,0.43-0.774,1.012-0.766,1.747H216.719z"/>
		<path fill="#FFFFFF" d="M220.765,248.7l3.649-0.411c0.157,0.524,0.472,0.923,0.949,1.193c0.472,0.271,1.134,0.407,1.99,0.407
			c0.941,0,1.648-0.128,2.12-0.383c0.322-0.179,0.481-0.42,0.481-0.72c0-0.202-0.088-0.373-0.261-0.508
			c-0.181-0.128-0.585-0.245-1.214-0.354c-2.936-0.48-4.794-0.917-5.577-1.313c-1.089-0.55-1.634-1.311-1.634-2.291
			c0-0.882,0.472-1.621,1.415-2.223c0.937-0.602,2.396-0.9,4.372-0.9c1.88,0,3.276,0.225,4.19,0.68
			c0.915,0.453,1.545,1.124,1.89,2.013l-3.429,0.468c-0.146-0.396-0.426-0.697-0.836-0.908c-0.408-0.212-0.993-0.319-1.749-0.319
			c-0.961,0-1.647,0.101-2.063,0.299c-0.272,0.141-0.412,0.321-0.412,0.547c0,0.192,0.124,0.353,0.36,0.49
			c0.331,0.177,1.463,0.431,3.399,0.753c1.938,0.327,3.29,0.728,4.056,1.2c0.761,0.479,1.14,1.147,1.14,2.003
			c0,0.932-0.527,1.734-1.58,2.406c-1.049,0.671-2.606,1.009-4.669,1.009c-1.872,0-3.354-0.282-4.445-0.845
			C221.816,250.429,221.103,249.667,220.765,248.7z"/>
		<path fill="#FFFFFF" d="M254.157,251.602h-3.635v-5.192c0-1.098-0.08-1.809-0.229-2.13c-0.159-0.323-0.411-0.574-0.763-0.753
			c-0.349-0.179-0.769-0.268-1.258-0.268c-0.632,0-1.195,0.127-1.696,0.384c-0.498,0.253-0.845,0.593-1.03,1.014
			c-0.183,0.422-0.277,1.203-0.277,2.34v4.605h-3.639v-10.176h3.379v1.497c1.197-1.15,2.71-1.725,4.53-1.725
			c0.8,0,1.536,0.107,2.199,0.321c0.661,0.212,1.169,0.486,1.507,0.817c0.342,0.333,0.577,0.71,0.713,1.133
			c0.132,0.421,0.199,1.025,0.199,1.809V251.602z"/>
		<path fill="#FFFFFF" d="M255.76,246.371c0-0.894,0.299-1.759,0.896-2.599c0.593-0.833,1.437-1.474,2.529-1.914
			c1.09-0.44,2.309-0.66,3.654-0.66c2.077,0,3.78,0.496,5.111,1.496c1.325,1.003,1.992,2.266,1.992,3.793
			c0,1.54-0.671,2.817-2.013,3.828c-1.342,1.016-3.028,1.522-5.065,1.522c-1.259,0-2.461-0.214-3.604-0.638
			c-1.142-0.42-2.013-1.037-2.605-1.853C256.059,248.532,255.76,247.544,255.76,246.371z M259.487,246.516
			c0,1.011,0.323,1.782,0.971,2.319c0.648,0.538,1.445,0.806,2.393,0.806c0.948,0,1.746-0.268,2.391-0.806
			c0.64-0.537,0.959-1.315,0.959-2.339c0-0.994-0.319-1.765-0.959-2.299c-0.645-0.536-1.442-0.806-2.391-0.806
			c-0.947,0-1.744,0.27-2.393,0.806C259.811,244.731,259.487,245.506,259.487,246.516z"/>
		<path fill="#FFFFFF" d="M277.846,241.426v2.149h-2.482v4.101c0,0.831,0.021,1.316,0.069,1.452c0.045,0.137,0.153,0.251,0.323,0.34
			c0.168,0.089,0.373,0.134,0.616,0.134c0.336,0,0.822-0.085,1.461-0.258l0.309,2.089c-0.847,0.27-1.803,0.405-2.872,0.405
			c-0.653,0-1.247-0.083-1.772-0.246c-0.525-0.164-0.912-0.375-1.158-0.634c-0.247-0.259-0.415-0.609-0.511-1.05
			c-0.077-0.311-0.114-0.943-0.114-1.897v-4.436h-1.671v-2.149h1.671v-2.021l3.649-1.573v3.594H277.846z"/>
		<path fill="#FFFFFF" d="M293.197,248.366l3.628,0.449c-0.468,0.986-1.205,1.733-2.211,2.247c-1.004,0.514-2.261,0.775-3.769,0.775
			c-2.393,0-4.157-0.583-5.307-1.737c-0.905-0.928-1.361-2.094-1.361-3.509c0-1.688,0.599-3.008,1.789-3.963
			c1.188-0.954,2.695-1.431,4.517-1.431c2.044,0,3.654,0.496,4.84,1.496c1.184,1.003,1.746,2.533,1.693,4.599h-9.107
			c0.021,0.8,0.317,1.42,0.878,1.863c0.56,0.445,1.262,0.666,2.098,0.666c0.568,0,1.047-0.114,1.436-0.345
			S293.001,248.876,293.197,248.366z M293.409,245.645c-0.03-0.78-0.299-1.372-0.816-1.779c-0.519-0.405-1.15-0.606-1.893-0.606
			c-0.792,0-1.446,0.213-1.965,0.639c-0.517,0.43-0.771,1.012-0.764,1.747H293.409z"/>
		<path fill="#FFFFFF" d="M296.986,251.602l4.958-5.24l-4.748-4.936h4.439l2.432,2.802l2.559-2.802h4.271l-4.658,4.823l5.086,5.353
			h-4.464l-2.794-3.15l-2.823,3.15H296.986z"/>
		<path fill="#FFFFFF" d="M312.228,240.047v-2.492h3.638v2.492H312.228z M312.228,251.602v-10.176h3.638v10.176H312.228z"/>
		<path fill="#FFFFFF" d="M317.064,248.7l3.648-0.411c0.155,0.524,0.473,0.923,0.944,1.193c0.476,0.271,1.142,0.407,1.994,0.407
			c0.94,0,1.65-0.128,2.12-0.383c0.321-0.179,0.48-0.42,0.48-0.72c0-0.202-0.09-0.373-0.261-0.508
			c-0.178-0.128-0.583-0.245-1.217-0.354c-2.933-0.48-4.791-0.917-5.574-1.313c-1.086-0.55-1.63-1.311-1.63-2.291
			c0-0.882,0.468-1.621,1.408-2.223c0.941-0.602,2.398-0.9,4.375-0.9c1.882,0,3.278,0.225,4.194,0.68
			c0.914,0.453,1.54,1.124,1.887,2.013l-3.432,0.468c-0.143-0.396-0.42-0.697-0.831-0.908c-0.41-0.212-0.996-0.319-1.755-0.319
			c-0.957,0-1.643,0.101-2.056,0.299c-0.276,0.141-0.415,0.321-0.415,0.547c0,0.192,0.122,0.353,0.363,0.49
			c0.327,0.177,1.459,0.431,3.395,0.753c1.939,0.327,3.289,0.728,4.056,1.2c0.762,0.479,1.143,1.147,1.143,2.003
			c0,0.932-0.526,1.734-1.578,2.406c-1.054,0.671-2.61,1.009-4.673,1.009c-1.871,0-3.354-0.282-4.447-0.845
			C318.115,250.429,317.399,249.667,317.064,248.7z"/>
		<path fill="#FFFFFF" d="M338.14,241.426v2.149h-2.483v4.101c0,0.831,0.023,1.316,0.07,1.452c0.046,0.137,0.157,0.251,0.324,0.34
			s0.372,0.134,0.616,0.134c0.334,0,0.825-0.085,1.461-0.258l0.311,2.089c-0.846,0.27-1.804,0.405-2.873,0.405
			c-0.656,0-1.245-0.083-1.773-0.246c-0.525-0.164-0.91-0.375-1.157-0.634s-0.415-0.609-0.51-1.05
			c-0.08-0.311-0.119-0.943-0.119-1.897v-4.436h-1.671v-2.149h1.671v-2.021l3.65-1.573v3.594H338.14z"/>
		<path fill="#FFFFFF" d="M339.418,251.602v-2.689h3.636v2.689H339.418z"/>
	</g>
	<g>
		<ellipse fill="#97B9D4" cx="101.067" cy="85.971" rx="40.928" ry="39.179"/>
		<ellipse fill="#97B9D4" cx="296.937" cy="85.971" rx="40.927" ry="39.179"/>
		<ellipse fill="#97B9D4" cx="199.002" cy="85.971" rx="40.927" ry="39.179"/>
	</g>
	<g transform="translate(433.844,274.339)">
		<g enable-background="new    ">
			<path fill="#FFFFFF" d="M-135.344-170.449v-7.702h-25.672v-6.424l27.211-24.308h10.102v24.282h7.785v6.45h-7.785v7.702H-135.344z
				 M-135.344-184.601v-13.081l-14.418,13.081H-135.344z"/>
		</g>
	</g>
	<g transform="translate(270.583,270.428)">
		<g enable-background="new    ">
			<path fill="#FFFFFF" d="M-71.583-202.829c6.078,0,10.826,1.322,14.248,3.97c4.08,3.131,6.119,8.327,6.119,15.586
				c0,7.241-2.055,12.445-6.162,15.614c-3.395,2.61-8.127,3.916-14.205,3.916c-6.105,0-11.024-1.432-14.763-4.295
				c-3.736-2.863-5.604-7.967-5.604-15.313c0-7.206,2.055-12.393,6.161-15.562C-82.395-201.524-77.658-202.829-71.583-202.829z
				 M-71.583-196.746c-1.456,0-2.752,0.284-3.894,0.849c-1.141,0.565-2.024,1.58-2.652,3.042c-0.827,1.897-1.24,5.091-1.24,9.582
				s0.369,7.577,1.111,9.256c0.742,1.679,1.676,2.797,2.804,3.354c1.125,0.558,2.415,0.836,3.871,0.836
				c1.457,0,2.752-0.283,3.895-0.849c1.143-0.565,2.025-1.579,2.652-3.041c0.826-1.88,1.242-5.065,1.242-9.556
				s-0.373-7.577-1.111-9.256c-0.742-1.679-1.678-2.802-2.805-3.368C-68.837-196.462-70.126-196.746-71.583-196.746z"/>
		</g>
	</g>
	<g enable-background="new    ">
		<path fill="#FFFFFF" d="M100.865,103.89v-7.702H75.193v-6.422l27.212-24.309h10.099V89.74h7.788v6.448h-7.788v7.702H100.865z
			 M100.865,89.74V76.659L86.446,89.74H100.865z"/>
	</g>
</g>
</svg>
