<?xml version="1.0" encoding="utf-8"?>
<!-- Generator: Adobe Illustrator 16.0.3, SVG Export Plug-In . SVG Version: 6.00 Build 0)  -->
<!DOCTYPE svg PUBLIC "-//W3C//DTD SVG 1.1//EN" "http://www.w3.org/Graphics/SVG/1.1/DTD/svg11.dtd">
<svg version="1.1" xmlns="http://www.w3.org/2000/svg" xmlns:xlink="http://www.w3.org/1999/xlink" x="0px" y="0px" width="400px"
	 height="300px" viewBox="0 0 400 300" enable-background="new 0 0 400 300" xml:space="preserve">
<g id="Layer_1">
	<g id="Layer_1_1_">
		<g id="cvpage1_top" transform="translate(0,0)">
			<rect fill="#FFFFFF" width="400" height="300"/>
			<rect fill="#97B9D4" width="400" height="300"/>
			<g transform="translate(63.436,142.894)">
				
					<text transform="matrix(0.9669 0 0 1 31.8111 -80.0483)" display="none" enable-background="new    " font-family="'Arial-BoldMT'" font-size="54.068" letter-spacing="-1.034">What Are</text>
				
					<text transform="matrix(0.9669 0 0 1 90.6743 -13.3999)" display="none" enable-background="new    " font-family="'Arial-BoldMT'" font-size="54.068" letter-spacing="-1.034">You</text>
				
					<text transform="matrix(0.9669 0 0 1 -15.4267 53.2457)" display="none" enable-background="new    " font-family="'Arial-BoldMT'" font-size="54.068" letter-spacing="-1.034">Looking For?</text>
			</g>
		</g>
	</g>
	<g>
		<path d="M134.761,87.396h0.141l3.68-21.773h6.469l-6.586,34.125h-6.211l-4.805-20.906h-0.141l-4.758,20.906h-6.188l-6.586-34.125
			h6.469l3.68,21.773h0.141l4.922-21.773h4.781L134.761,87.396z"/>
		<path d="M154.191,77.412c0.656-1.109,1.445-1.969,2.367-2.578s1.938-0.914,3.047-0.914c2.25,0,4.016,0.895,5.297,2.684
			s1.922,4.551,1.922,8.285v14.859h-6.68V84.825c0-2.096-0.246-3.55-0.738-4.364c-0.492-0.813-1.262-1.22-2.309-1.22
			c-0.625,0-1.18,0.137-1.664,0.411c-0.484,0.273-0.898,0.653-1.242,1.138v18.959h-6.656V63.186h6.656V77.412z"/>
		<path d="M183.394,99.748c-0.188-0.422-0.355-0.883-0.504-1.383s-0.262-1.008-0.34-1.523c-0.625,1.031-1.387,1.855-2.285,2.473
			s-1.941,0.926-3.129,0.926c-2.094,0-3.77-0.688-5.027-2.063s-1.887-3.211-1.887-5.508c0-2.484,0.801-4.414,2.402-5.789
			s3.98-2.063,7.137-2.063h2.508v-2.063c0-1.234-0.223-2.184-0.668-2.848s-1.113-0.996-2.004-0.996c-0.75,0-1.313,0.266-1.688,0.797
			s-0.563,1.305-0.563,2.32l-6.445-0.023l-0.07-0.141c-0.078-2.203,0.738-4.078,2.449-5.625s3.965-2.32,6.762-2.32
			c2.641,0,4.785,0.77,6.434,2.309s2.473,3.73,2.473,6.574v10.266c0,1.25,0.086,2.414,0.258,3.492s0.438,2.141,0.797,3.188H183.394z
			 M179.058,95.225c0.672,0,1.293-0.18,1.863-0.539s1.02-0.82,1.348-1.383v-4.664h-2.508c-1.016,0-1.75,0.352-2.203,1.055
			s-0.68,1.594-0.68,2.672c0,0.844,0.195,1.531,0.586,2.063S178.386,95.225,179.058,95.225z"/>
		<path d="M201.089,68.084v6.305h3.516v4.828h-3.516v12.727c0,1.031,0.148,1.77,0.445,2.215s0.703,0.668,1.219,0.668
			c0.406,0,0.75-0.02,1.031-0.059s0.594-0.105,0.938-0.199l0.516,5.063c-0.703,0.219-1.375,0.375-2.016,0.469
			s-1.367,0.141-2.18,0.141c-2.14,0-3.777-0.66-4.91-1.98s-1.699-3.418-1.699-6.293v-12.75h-3v-4.828h3v-6.305H201.089z"/>
		<path d="M234.651,92.459h-9l-1.828,7.289h-6.727l9.609-34.125h6.938l9.586,34.125h-6.727L234.651,92.459z M227.011,87.139h6.281
			l-3.07-12.07h-0.141L227.011,87.139z"/>
		<path d="M257.433,80.459l-2.508-0.07c-0.703,0-1.285,0.172-1.746,0.516s-0.816,0.828-1.066,1.453v17.391h-6.656V74.389h6.211
			l0.258,3.398l0.117,0.047c0.406-1.219,0.973-2.176,1.699-2.871s1.574-1.043,2.543-1.043c0.297,0,0.613,0.027,0.949,0.082
			s0.629,0.121,0.879,0.199L257.433,80.459z"/>
		<path d="M270.229,100.24c-3.188,0-5.719-1.047-7.594-3.141s-2.813-4.734-2.813-7.922v-3.563c0-3.422,0.871-6.227,2.613-8.414
			s4.152-3.281,7.23-3.281c2.969,0,5.266,0.992,6.891,2.977s2.438,4.688,2.438,8.109v4.078h-12.539v0.094
			c0,1.672,0.379,3.047,1.137,4.125s1.902,1.617,3.434,1.617c1.25,0,2.266-0.141,3.047-0.422s1.711-0.75,2.789-1.406l1.688,4.242
			c-0.875,0.844-2.043,1.539-3.504,2.086S271.979,100.24,270.229,100.24z M269.667,79.24c-1.063,0-1.844,0.487-2.344,1.46
			c-0.5,0.973-0.781,2.283-0.844,3.931h5.977v-0.941c0-1.412-0.219-2.507-0.656-3.284C271.362,79.629,270.651,79.24,269.667,79.24z"
			/>
		<path d="M177.347,137.848h0.141l5.695-14.625h7.242l-9.75,21.984v12.14h-6.656v-12.562l-9.586-21.563h7.289L177.347,137.848z"/>
		<path d="M190.449,143.122c0-3.406,0.902-6.191,2.707-8.355c1.805-2.164,4.332-3.246,7.582-3.246c3.25,0,5.781,1.082,7.594,3.246
			c1.813,2.165,2.719,4.949,2.719,8.355v3.141c0,3.438-0.906,6.226-2.719,8.367c-1.813,2.142-4.336,3.211-7.57,3.211
			c-3.265,0-5.8-1.069-7.605-3.211c-1.805-2.141-2.707-4.929-2.707-8.367V143.122z M197.082,146.253c0,1.956,0.273,3.489,0.82,4.601
			c0.547,1.11,1.5,1.666,2.859,1.666c1.313,0,2.246-0.559,2.801-1.678s0.832-2.648,0.832-4.589v-3.146
			c0-1.909-0.277-3.431-0.832-4.565c-0.555-1.134-1.496-1.702-2.824-1.702c-1.328,0-2.269,0.571-2.824,1.713
			c-0.555,1.143-0.832,2.661-0.832,4.554V146.253z"/>
		<path d="M227.433,154.418c-0.688,1.11-1.52,1.957-2.496,2.543s-2.082,0.879-3.316,0.879c-2.266,0-4.035-0.855-5.309-2.566
			s-1.91-4.362-1.91-7.957v-15.328h6.656v15.393c0,1.799,0.219,3.105,0.656,3.918s1.086,1.22,1.945,1.22
			c0.734,0,1.379-0.137,1.934-0.41c0.555-0.274,1.027-0.677,1.418-1.209v-18.912h6.68v25.359h-5.859L227.433,154.418z"/>
		<path d="M82.261,209.628H94.73v5.32H75.582v-34.125h6.68V209.628z"/>
		<path d="M96.839,200.722c0-3.406,0.902-6.191,2.707-8.355s4.332-3.246,7.582-3.246s5.781,1.082,7.594,3.246
			s2.719,4.949,2.719,8.355v3.141c0,3.438-0.906,6.227-2.719,8.367s-4.336,3.211-7.57,3.211c-3.266,0-5.801-1.07-7.605-3.211
			s-2.707-4.93-2.707-8.367V200.722z M103.472,203.853c0,1.956,0.273,3.49,0.82,4.601c0.547,1.111,1.5,1.667,2.859,1.667
			c1.313,0,2.246-0.56,2.801-1.679c0.555-1.118,0.832-2.648,0.832-4.589v-3.145c0-1.909-0.277-3.432-0.832-4.565
			c-0.555-1.135-1.496-1.702-2.824-1.702s-2.27,0.571-2.824,1.714s-0.832,2.66-0.832,4.554V203.853z"/>
		<path d="M120.16,200.722c0-3.406,0.902-6.191,2.707-8.355s4.332-3.246,7.582-3.246s5.781,1.082,7.594,3.246
			s2.719,4.949,2.719,8.355v3.141c0,3.438-0.906,6.227-2.719,8.367s-4.336,3.211-7.57,3.211c-3.266,0-5.801-1.07-7.605-3.211
			s-2.707-4.93-2.707-8.367V200.722z M126.792,203.853c0,1.956,0.273,3.49,0.82,4.601c0.547,1.111,1.5,1.667,2.859,1.667
			c1.313,0,2.246-0.56,2.801-1.679c0.555-1.118,0.832-2.648,0.832-4.589v-3.145c0-1.909-0.277-3.432-0.832-4.565
			c-0.555-1.135-1.496-1.702-2.824-1.702s-2.27,0.571-2.824,1.714s-0.832,2.66-0.832,4.554V203.853z"/>
		<path d="M152.152,204.401h-1.219v10.547h-6.656v-36.563h6.656v20.766h1.102l4.289-9.563h7.664l-6.609,11.414l7.711,13.945h-7.617
			L152.152,204.401z"/>
		<path d="M173.808,183.472h-6.656v-5.086h6.656V183.472z M173.808,214.948h-6.656v-25.359h6.656V214.948z"/>
		<path d="M184.542,189.589l0.281,3.492c0.703-1.25,1.566-2.223,2.59-2.918s2.152-1.043,3.387-1.043c2.109,0,3.77,0.813,4.98,2.438
			s1.816,4.18,1.816,7.664v15.727h-6.68v-15.744c0-1.752-0.246-2.983-0.738-3.696c-0.492-0.711-1.254-1.067-2.285-1.067
			c-0.594,0-1.141,0.157-1.641,0.47s-0.922,0.743-1.266,1.29v18.748h-6.656v-25.359H184.542z"/>
		<path d="M200.878,201.097c0-3.578,0.738-6.469,2.215-8.672s3.559-3.305,6.246-3.305c1.125,0,2.117,0.285,2.977,0.855
			s1.609,1.387,2.25,2.449l0.422-2.836h5.789v24.867c0,3.328-0.965,5.949-2.895,7.863s-4.574,2.871-7.934,2.871
			c-1.094,0-2.258-0.176-3.492-0.527s-2.383-0.824-3.445-1.418l1.172-5.133c0.891,0.5,1.797,0.875,2.719,1.125s1.922,0.375,3,0.375
			c1.406,0,2.461-0.441,3.164-1.324s1.055-2.168,1.055-3.855v-1.453c-0.625,0.813-1.336,1.426-2.133,1.84s-1.695,0.621-2.695,0.621
			c-2.672,0-4.742-1.027-6.211-3.082s-2.203-4.77-2.203-8.145V201.097z M207.534,204.229c0,1.847,0.266,3.29,0.797,4.331
			c0.531,1.04,1.422,1.561,2.672,1.561c0.688,0,1.293-0.141,1.816-0.422c0.523-0.282,0.957-0.697,1.301-1.245v-12.018
			c-0.344-0.626-0.77-1.111-1.277-1.455c-0.508-0.345-1.105-0.517-1.793-0.517c-1.25,0-2.148,0.606-2.695,1.819
			s-0.82,2.82-0.82,4.823V204.229z"/>
		<path d="M254.269,200.769H242.69v14.18h-6.68v-34.125h20.297v5.32H242.69v9.305h11.578V200.769z"/>
		<path d="M258.112,200.722c0-3.406,0.902-6.191,2.707-8.355s4.332-3.246,7.582-3.246s5.781,1.082,7.594,3.246
			s2.719,4.949,2.719,8.355v3.141c0,3.438-0.906,6.227-2.719,8.367s-4.336,3.211-7.57,3.211c-3.266,0-5.801-1.07-7.605-3.211
			s-2.707-4.93-2.707-8.367V200.722z M264.745,203.853c0,1.956,0.273,3.49,0.82,4.601c0.547,1.111,1.5,1.667,2.859,1.667
			c1.313,0,2.246-0.56,2.801-1.679c0.555-1.118,0.832-2.648,0.832-4.589v-3.145c0-1.909-0.277-3.432-0.832-4.565
			c-0.555-1.135-1.496-1.702-2.824-1.702s-2.27,0.571-2.824,1.714s-0.832,2.66-0.832,4.554V203.853z"/>
		<path d="M294.206,195.659l-2.508-0.07c-0.703,0-1.285,0.172-1.746,0.516s-0.816,0.828-1.066,1.453v17.391h-6.656v-25.359h6.211
			l0.258,3.398l0.117,0.047c0.406-1.219,0.973-2.176,1.699-2.871s1.574-1.043,2.543-1.043c0.297,0,0.613,0.027,0.949,0.082
			s0.629,0.121,0.879,0.199L294.206,195.659z"/>
		<path d="M312.276,205.269c0.016-2.125,0.324-3.703,0.926-4.734s1.754-2.273,3.457-3.727c0.875-0.862,1.57-1.816,2.086-2.859
			c0.516-1.044,0.773-2.24,0.773-3.59c0-1.443-0.293-2.589-0.879-3.436c-0.586-0.848-1.418-1.271-2.496-1.271
			c-0.828,0-1.547,0.368-2.156,1.103s-0.922,1.781-0.938,3.14h-6.469l-0.047-0.141c-0.047-3.078,0.82-5.418,2.602-7.02
			s4.117-2.402,7.008-2.402c3.125,0,5.582,0.902,7.371,2.707s2.684,4.246,2.684,7.324c0,1.953-0.5,3.762-1.5,5.426
			s-2.25,3.059-3.75,4.184c-0.797,0.719-1.332,1.457-1.605,2.215s-0.41,1.785-0.41,3.082H312.276z M318.886,214.948H312.3v-5.789
			h6.586V214.948z"/>
	</g>
</g>
<g id="Layer_2">
</g>
</svg>
