<?xml version="1.0" encoding="utf-8"?>
<!-- Generator: Adobe Illustrator 16.0.3, SVG Export Plug-In . SVG Version: 6.00 Build 0)  -->
<!DOCTYPE svg PUBLIC "-//W3C//DTD SVG 1.1//EN" "http://www.w3.org/Graphics/SVG/1.1/DTD/svg11.dtd">
<svg version="1.1" id="Layer_1" xmlns="http://www.w3.org/2000/svg" xmlns:xlink="http://www.w3.org/1999/xlink" x="0px" y="0px"
	 width="420px" height="90px" viewBox="0 0 420 90" enable-background="new 0 0 420 90" xml:space="preserve">
<g id="Layer_1_1_">
	<rect x="10.892" y="19.63" fill="#1C75BC" stroke="#FFFFFF" stroke-miterlimit="10" width="48.087" height="48.086"/>
	<g>
		<path fill="#FFFFFF" d="M16.39,49.425V37.223h9.002v2.96h-5.741v1.841h4.901v2.801h-4.901v1.7h5.901v2.899H16.39z"/>
		<path fill="#FFFFFF" d="M35.714,40.563c-1.88-0.7-2.9-0.92-3.961-0.92c-0.7,0-1.28,0.28-1.28,0.801c0,0.56,0.46,0.779,3.081,1.66
			c2.481,0.84,3.281,1.76,3.281,3.8c0,2.222-1.62,3.701-4.481,3.701c-1.58,0-4.081-0.641-5.761-1.66l1.22-2.541
			c1.86,1.02,3.181,1.42,4.361,1.42c0.72,0,1.12-0.3,1.12-0.82c0-0.52-0.32-0.72-2.681-1.42c-2.361-0.7-3.481-2.021-3.481-3.901
			c0-2.08,1.5-3.66,4.261-3.66c1.56,0,3.121,0.2,5.281,1.16L35.714,40.563z"/>
		<path fill="#FFFFFF" d="M49.577,42.983v-0.561l-2.861,7.002h-1.96l-2.84-7.002v0.48l-0.16,6.521h-3.281l0.48-12.202h3.641
			l2.84,6.641c0.14,0.36,0.24,0.7,0.3,0.921c0.06-0.221,0.16-0.561,0.3-0.921l2.841-6.641h3.641l0.48,12.202h-3.281L49.577,42.983z"
			/>
	</g>
	<g>
		<path d="M69.814,40.562V20.381h14.887v4.896h-9.495v3.043h8.105v4.632h-8.105v2.812h9.759v4.797L69.814,40.562L69.814,40.562z"/>
		<path d="M97.505,38.775c-1.324,1.29-2.283,2.084-4.764,2.084c-3.342,0-6.352-2.448-6.352-8.436c0-5.724,2.349-8.139,6.021-8.139
			c1.952,0,3.54,0.563,5.095,2.184v-7.245h5.293v21.338h-5.293V38.775z M97.505,30.504c-0.894-1.191-1.919-1.819-3.209-1.819
			c-1.721,0-2.713,1.059-2.713,3.738c0,2.911,1.158,4.102,2.878,4.102c1.456,0,2.25-0.595,3.044-1.72V30.504z"/>
		<path d="M121.555,37.783c0,6.086-2.778,8.535-8.104,8.535c-2.383,0-5.228-0.53-7.047-1.356l0.695-3.606
			c1.819,0.463,4.07,0.96,5.624,0.96c2.382,0,3.541-1.125,3.541-4.532v-0.1c-1.324,1.621-2.481,2.184-4.962,2.184
			c-3.706,0-6.121-2.515-6.121-7.676c0-5.492,2.118-7.907,6.022-7.907c1.951,0,3.506,0.761,5.061,2.084v-1.787h5.292L121.555,37.783
			L121.555,37.783z M116.263,30.504c-0.893-1.191-1.886-1.819-3.177-1.819c-1.785,0-2.712,0.893-2.712,3.506
			c0,2.713,1.125,3.606,2.879,3.606c1.455,0,2.216-0.596,3.01-1.753V30.504z"/>
		<path d="M139.157,38.279c-2.415,1.819-4.698,2.58-7.377,2.58c-4.897,0-8.073-2.746-8.073-8.171c0-5.558,3.109-8.403,8.106-8.403
			c4.499,0,7.41,2.614,7.443,7.675c0,0.662-0.033,1.323-0.132,2.15h-10.322c0.364,1.787,1.423,2.646,3.21,2.646
			c2.15,0,3.671-0.396,5.656-1.456L139.157,38.279z M134.724,30.968c-0.132-2.084-1.192-3.011-2.911-3.011
			c-1.754,0-2.747,0.959-3.044,3.011H134.724z"/>
		<path d="M162.711,25.906c-3.109-1.158-4.796-1.522-6.55-1.522c-1.157,0-2.117,0.463-2.117,1.324c0,0.926,0.76,1.29,5.096,2.746
			c4.101,1.39,5.425,2.912,5.425,6.286c0,3.672-2.679,6.12-7.41,6.12c-2.615,0-6.75-1.059-9.529-2.746l2.018-4.202
			c3.078,1.688,5.261,2.349,7.211,2.349c1.192,0,1.853-0.496,1.853-1.356c0-0.86-0.529-1.191-4.433-2.349
			c-3.904-1.158-5.755-3.341-5.755-6.451c0-3.441,2.481-6.055,7.046-6.055c2.58,0,5.16,0.331,8.733,1.919L162.711,25.906z"/>
		<path d="M169.427,17.238c1.555,0,2.979,0.893,2.979,2.68c0,1.819-1.423,2.712-2.979,2.712c-1.554,0-2.977-0.893-2.977-2.712
			C166.45,18.131,167.874,17.238,169.427,17.238z M166.781,40.562V24.583h5.294v15.979H166.781z"/>
		<path d="M185.605,38.775c-1.322,1.29-2.283,2.084-4.764,2.084c-3.34,0-6.352-2.448-6.352-8.436c0-5.724,2.349-8.139,6.021-8.139
			c1.952,0,3.541,0.563,5.094,2.184v-7.245h5.294v21.338h-5.294L185.605,38.775L185.605,38.775z M185.605,30.504
			c-0.893-1.191-1.917-1.819-3.208-1.819c-1.721,0-2.713,1.059-2.713,3.738c0,2.911,1.157,4.102,2.878,4.102
			c1.456,0,2.25-0.595,3.043-1.72V30.504L185.605,30.504z"/>
		<path d="M208.599,38.279c-2.415,1.819-4.698,2.58-7.377,2.58c-4.896,0-8.073-2.746-8.073-8.171c0-5.558,3.111-8.403,8.106-8.403
			c4.499,0,7.411,2.614,7.444,7.675c0,0.662-0.033,1.323-0.134,2.15h-10.321c0.364,1.787,1.422,2.646,3.208,2.646
			c2.15,0,3.673-0.396,5.658-1.456L208.599,38.279z M204.166,30.968c-0.132-2.084-1.19-3.011-2.911-3.011
			c-1.754,0-2.746,0.959-3.043,3.011H204.166z"/>
	</g>
	<g>
		<path d="M88.076,57.063v-0.927l-4.731,11.579h-3.242l-4.698-11.579v0.796L75.14,67.716h-5.426l0.794-20.181h6.021l4.698,10.984
			c0.231,0.595,0.397,1.156,0.496,1.521c0.099-0.364,0.265-0.927,0.496-1.521l4.698-10.984h6.021l0.794,20.181h-5.425L88.076,57.063
			z"/>
		<path d="M111.466,65.434c-2.416,1.819-4.698,2.58-7.378,2.58c-4.896,0-8.072-2.744-8.072-8.172c0-5.557,3.11-8.402,8.105-8.402
			c4.499,0,7.411,2.613,7.444,7.676c0,0.66-0.033,1.322-0.132,2.15H101.11c0.365,1.786,1.423,2.646,3.209,2.646
			c2.15,0,3.673-0.396,5.658-1.455L111.466,65.434z M107.033,58.122c-0.132-2.084-1.191-3.011-2.912-3.011
			c-1.753,0-2.746,0.959-3.043,3.011H107.033z"/>
		<path d="M124.302,65.93c-1.324,1.291-2.283,2.084-4.764,2.084c-3.342,0-6.352-2.447-6.352-8.437c0-5.724,2.349-8.14,6.021-8.14
			c1.951,0,3.539,0.563,5.094,2.185v-7.244h5.292v21.338h-5.292L124.302,65.93L124.302,65.93z M124.302,57.658
			c-0.893-1.189-1.919-1.818-3.21-1.818c-1.719,0-2.712,1.059-2.712,3.737c0,2.912,1.159,4.103,2.879,4.103
			c1.455,0,2.25-0.595,3.043-1.721V57.658z"/>
		<path d="M135.517,44.393c1.555,0,2.979,0.894,2.979,2.68c0,1.819-1.423,2.713-2.979,2.713c-1.554,0-2.977-0.894-2.977-2.713
			C132.54,45.286,133.963,44.393,135.517,44.393z M132.871,67.716V51.736h5.294v15.979H132.871z"/>
		<path d="M142.168,52.631c3.706-0.96,5.326-1.191,6.98-1.191c4.665,0,6.551,1.951,6.551,6.584v9.692h-5.161V65.83
			c-1.291,1.322-2.746,2.184-4.665,2.184c-3.375,0-5.261-1.257-5.261-5.027c0-3.408,2.25-4.963,6.749-4.963h3.177
			c0-1.787-0.496-2.516-2.382-2.516c-1.191,0-2.912,0.198-5.195,0.695L142.168,52.631z M148.057,60.835
			c-1.688,0-2.615,0.166-2.615,1.521c0,1.158,0.828,1.887,2.15,1.887c1.258,0,2.15-0.563,2.945-1.389v-2.02L148.057,60.835
			L148.057,60.835z"/>
	</g>
</g>
</svg>
