<?xml version="1.0" encoding="utf-8"?>
<!-- Generator: Adobe Illustrator 16.0.3, SVG Export Plug-In . SVG Version: 6.00 Build 0)  -->
<!DOCTYPE svg PUBLIC "-//W3C//DTD SVG 1.1//EN" "http://www.w3.org/Graphics/SVG/1.1/DTD/svg11.dtd">
<svg version="1.1" id="Layer_1" xmlns="http://www.w3.org/2000/svg" xmlns:xlink="http://www.w3.org/1999/xlink" x="0px" y="0px"
	 width="420px" height="90px" viewBox="0 0 420 90" enable-background="new 0 0 420 90" xml:space="preserve">
<g id="Layer_2">
	<g>
		<path d="M260.955,50.426h-3.328V36.843l-3.164,0.07v-2.402l6.492-1.16V50.426z"/>
		<path d="M272.135,44.425h-5.824v-2.66h5.824V44.425z"/>
		<path d="M284.697,36.035c-1.539,1.977-2.562,3.877-3.064,5.701c-0.503,1.824-0.869,4.174-1.096,7.049l-0.152,1.641h-3.34
			l0.164-1.643c0.211-2.557,0.666-4.895,1.365-7.013c0.699-2.119,1.678-4.035,2.936-5.747h-7.195v-2.66h10.383V36.035
			L284.697,36.035z"/>
		<path d="M296.639,36.035c-1.539,1.977-2.561,3.877-3.063,5.701c-0.503,1.824-0.869,4.174-1.097,7.049l-0.151,1.641h-3.341
			l0.164-1.643c0.211-2.557,0.666-4.895,1.365-7.013c0.699-2.119,1.678-4.035,2.937-5.747h-7.195v-2.66h10.384v2.672H296.639z"/>
		<path d="M307.326,44.027h1.477v2.661h-1.477v3.738h-3.316v-3.738h-5.66l-0.176-2.075l5.824-11.25h3.328V44.027z M301.197,44.027
			h2.813v-5.895l-0.07-0.012l-0.176,0.316L301.197,44.027z"/>
		<path d="M316.725,44.425H310.9v-2.66h5.824V44.425L316.725,44.425z"/>
		<path d="M319.549,42.878l0.844-9.516h8.344v2.73h-5.625l-0.362,4.02c0.242-0.242,0.545-0.443,0.908-0.604
			c0.362-0.161,0.743-0.248,1.143-0.264c1.423-0.023,2.515,0.467,3.275,1.471s1.143,2.416,1.143,4.236
			c0,1.625-0.432,2.984-1.295,4.078c-0.862,1.095-2.096,1.642-3.696,1.642c-1.359,0-2.533-0.437-3.521-1.307
			c-0.988-0.871-1.467-2.054-1.436-3.546l0.022-0.059l3.233-0.176c0,0.766,0.156,1.361,0.47,1.788
			c0.313,0.426,0.723,0.639,1.229,0.639c0.586,0,1.012-0.278,1.277-0.838c0.266-0.559,0.398-1.292,0.398-2.198
			c0-1.008-0.148-1.805-0.445-2.391s-0.75-0.879-1.359-0.879c-0.461,0-0.816,0.125-1.066,0.375s-0.422,0.582-0.516,0.996
			L319.549,42.878z"/>
		<path d="M331.49,42.878l0.844-9.516h8.344v2.73h-5.625l-0.363,4.02c0.242-0.242,0.545-0.443,0.908-0.604
			c0.363-0.161,0.744-0.248,1.144-0.264c1.422-0.023,2.514,0.467,3.274,1.471c0.762,1.004,1.144,2.416,1.144,4.236
			c0,1.625-0.433,2.984-1.296,4.078c-0.862,1.095-2.096,1.642-3.696,1.642c-1.358,0-2.533-0.437-3.521-1.307
			c-0.988-0.871-1.468-2.054-1.437-3.546l0.022-0.059l3.234-0.176c0,0.766,0.156,1.361,0.469,1.788
			c0.313,0.426,0.724,0.639,1.23,0.639c0.586,0,1.012-0.278,1.277-0.838c0.266-0.559,0.397-1.292,0.397-2.198
			c0-1.008-0.147-1.805-0.444-2.391s-0.75-0.879-1.359-0.879c-0.461,0-0.816,0.125-1.066,0.375s-0.422,0.582-0.516,0.996
			L331.49,42.878z"/>
		<path d="M343.432,42.878l0.844-9.516h8.345v2.73h-5.625l-0.363,4.02c0.242-0.242,0.545-0.443,0.908-0.604
			c0.362-0.161,0.744-0.248,1.144-0.264c1.422-0.023,2.514,0.467,3.274,1.471s1.144,2.416,1.144,4.236
			c0,1.625-0.433,2.984-1.295,4.078c-0.863,1.095-2.097,1.642-3.697,1.642c-1.359,0-2.533-0.437-3.521-1.307
			c-0.988-0.871-1.467-2.054-1.436-3.546l0.022-0.059l3.234-0.176c0,0.766,0.155,1.361,0.469,1.788
			c0.313,0.426,0.724,0.639,1.229,0.639c0.586,0,1.013-0.278,1.277-0.838c0.266-0.559,0.398-1.292,0.398-2.198
			c0-1.008-0.148-1.805-0.445-2.391s-0.75-0.879-1.359-0.879c-0.461,0-0.815,0.125-1.065,0.375s-0.422,0.582-0.517,0.996
			L343.432,42.878z"/>
		<path d="M361.314,44.425h-5.824v-2.66h5.824V44.425z"/>
		<path d="M373.514,37.886c0,0.859-0.193,1.617-0.58,2.273c-0.387,0.656-0.916,1.168-1.588,1.535
			c0.766,0.391,1.367,0.938,1.805,1.641c0.438,0.703,0.656,1.512,0.656,2.426c0,1.587-0.457,2.802-1.371,3.646
			s-2.117,1.266-3.608,1.266c-1.492,0-2.699-0.424-3.621-1.271c-0.922-0.846-1.383-2.061-1.383-3.639
			c0-0.914,0.219-1.725,0.655-2.432c0.438-0.707,1.043-1.252,1.816-1.635c-0.68-0.367-1.211-0.879-1.594-1.535
			c-0.383-0.656-0.574-1.414-0.574-2.273c0-1.508,0.43-2.68,1.289-3.516s1.992-1.254,3.398-1.254s2.541,0.418,3.403,1.254
			C373.081,35.207,373.514,36.378,373.514,37.886z M370.479,45.516c0-0.767-0.151-1.374-0.457-1.823
			c-0.305-0.449-0.707-0.674-1.207-0.674c-0.508,0-0.91,0.225-1.207,0.674c-0.297,0.449-0.444,1.057-0.444,1.823
			c0,0.78,0.147,1.393,0.444,1.834c0.297,0.44,0.703,0.661,1.22,0.661c0.5,0,0.899-0.221,1.2-0.661
			C370.328,46.908,370.479,46.296,370.479,45.516z M370.162,38.044c0-0.697-0.115-1.25-0.346-1.657
			c-0.231-0.407-0.564-0.611-1.002-0.611c-0.438,0-0.771,0.2-0.996,0.599c-0.228,0.4-0.34,0.956-0.34,1.668
			c0,0.721,0.114,1.287,0.346,1.698c0.23,0.411,0.564,0.617,1.002,0.617s0.77-0.204,0.996-0.611
			C370.048,39.34,370.162,38.773,370.162,38.044z"/>
		<path d="M385.725,43.734c0,2.273-0.451,3.999-1.354,5.174c-0.903,1.175-2.111,1.764-3.627,1.764c-1.531,0-2.75-0.588-3.656-1.764
			s-1.359-2.901-1.359-5.174v-3.668c0-2.266,0.451-3.99,1.354-5.174s2.114-1.775,3.64-1.775c1.523,0,2.737,0.592,3.645,1.775
			c0.906,1.183,1.359,2.908,1.359,5.174v3.668H385.725z M382.396,39.773c0-1.375-0.146-2.379-0.435-3.012
			c-0.289-0.633-0.69-0.93-1.207-0.891h-0.069c-0.523-0.039-0.927,0.258-1.207,0.891c-0.281,0.633-0.422,1.637-0.422,3.012v4.23
			c0,1.391,0.145,2.404,0.434,3.042c0.289,0.637,0.695,0.932,1.219,0.885h0.07c0.516,0.047,0.914-0.246,1.195-0.879
			c0.28-0.633,0.422-1.649,0.422-3.047V39.773z"/>
		<path d="M397.338,37.886c0,0.859-0.193,1.617-0.58,2.273c-0.387,0.656-0.916,1.168-1.588,1.535
			c0.766,0.391,1.367,0.938,1.805,1.641c0.438,0.703,0.656,1.512,0.656,2.426c0,1.587-0.457,2.802-1.371,3.646
			s-2.117,1.266-3.609,1.266c-1.491,0-2.698-0.424-3.621-1.271c-0.922-0.846-1.383-2.061-1.383-3.639
			c0-0.914,0.22-1.725,0.656-2.432c0.438-0.707,1.043-1.252,1.816-1.635c-0.68-0.367-1.211-0.879-1.594-1.535
			c-0.383-0.656-0.574-1.414-0.574-2.273c0-1.508,0.43-2.68,1.289-3.516s1.992-1.254,3.398-1.254c1.405,0,2.541,0.418,3.403,1.254
			C396.905,35.207,397.338,36.378,397.338,37.886z M394.303,45.516c0-0.767-0.152-1.374-0.457-1.823
			c-0.305-0.449-0.707-0.674-1.207-0.674c-0.508,0-0.91,0.225-1.207,0.674c-0.297,0.449-0.445,1.057-0.445,1.823
			c0,0.78,0.148,1.393,0.445,1.834c0.297,0.44,0.703,0.661,1.219,0.661c0.5,0,0.9-0.221,1.201-0.661
			C394.152,46.908,394.303,46.296,394.303,45.516z M393.986,38.044c0-0.697-0.115-1.25-0.346-1.657
			c-0.231-0.407-0.564-0.611-1.002-0.611c-0.438,0-0.771,0.2-0.996,0.599c-0.228,0.4-0.341,0.956-0.341,1.668
			c0,0.721,0.115,1.287,0.347,1.698c0.23,0.411,0.563,0.617,1.002,0.617c0.438,0,0.77-0.204,0.996-0.611
			C393.872,39.34,393.986,38.773,393.986,38.044z"/>
		<path d="M409.549,43.734c0,2.273-0.451,3.999-1.354,5.174c-0.903,1.175-2.111,1.764-3.627,1.764c-1.531,0-2.75-0.588-3.656-1.764
			s-1.359-2.901-1.359-5.174v-3.668c0-2.266,0.451-3.99,1.354-5.174c0.902-1.184,2.114-1.775,3.639-1.775s2.738,0.592,3.646,1.775
			c0.906,1.183,1.358,2.908,1.358,5.174L409.549,43.734L409.549,43.734z M406.221,39.773c0-1.375-0.145-2.379-0.434-3.012
			c-0.289-0.633-0.691-0.93-1.207-0.891h-0.07c-0.522-0.039-0.926,0.258-1.207,0.891c-0.28,0.633-0.422,1.637-0.422,3.012v4.23
			c0,1.391,0.146,2.404,0.435,3.042c0.288,0.637,0.694,0.932,1.219,0.885h0.069c0.517,0.047,0.914-0.246,1.195-0.879
			s0.422-1.649,0.422-3.047V39.773z"/>
	</g>
</g>
</svg>
