<?xml version="1.0" encoding="utf-8"?>
<!-- Generator: Adobe Illustrator 16.0.3, SVG Export Plug-In . SVG Version: 6.00 Build 0)  -->
<!DOCTYPE svg PUBLIC "-//W3C//DTD SVG 1.1//EN" "http://www.w3.org/Graphics/SVG/1.1/DTD/svg11.dtd" [
	<!ENTITY ns_flows "http://ns.adobe.com/Flows/1.0/">
	<!ENTITY ns_extend "http://ns.adobe.com/Extensibility/1.0/">
	<!ENTITY ns_ai "http://ns.adobe.com/AdobeIllustrator/10.0/">
	<!ENTITY ns_graphs "http://ns.adobe.com/Graphs/1.0/">
]>
<svg version="1.1" xmlns:x="&ns_extend;" xmlns:i="&ns_ai;" xmlns:graph="&ns_graphs;"
	 xmlns="http://www.w3.org/2000/svg" xmlns:xlink="http://www.w3.org/1999/xlink" xmlns:a="http://ns.adobe.com/AdobeSVGViewerExtensions/3.0/"
	 x="0px" y="0px" width="420px" height="90px" viewBox="0 0 420 90" enable-background="new 0 0 420 90" xml:space="preserve">
<g id="Layer_1">
	<rect x="10.892" y="19.63" fill="#1C75BC" stroke="#FFFFFF" stroke-miterlimit="10" width="48.087" height="48.086"/>
	<g>
		<path fill="#FFFFFF" d="M16.39,49.425V37.223h9.002v2.96h-5.741v1.841h4.901v2.801h-4.901v1.7h5.901v2.9H16.39z"/>
		<path fill="#FFFFFF" d="M35.714,40.563c-1.88-0.7-2.9-0.92-3.961-0.92c-0.7,0-1.28,0.28-1.28,0.801c0,0.56,0.46,0.779,3.081,1.66
			c2.481,0.84,3.281,1.76,3.281,3.801c0,2.221-1.62,3.7-4.481,3.7c-1.58,0-4.081-0.64-5.761-1.66l1.22-2.54
			c1.86,1.02,3.181,1.42,4.361,1.42c0.72,0,1.12-0.3,1.12-0.82c0-0.52-0.32-0.72-2.681-1.42s-3.481-2.021-3.481-3.901
			c0-2.08,1.5-3.66,4.261-3.66c1.56,0,3.121,0.2,5.281,1.16L35.714,40.563z"/>
		<path fill="#FFFFFF" d="M49.577,42.983v-0.561l-2.861,7.002h-1.96l-2.84-7.002v0.48l-0.16,6.521h-3.281l0.48-12.202h3.641
			l2.84,6.641c0.14,0.36,0.24,0.7,0.3,0.921c0.06-0.221,0.16-0.561,0.3-0.921l2.841-6.641h3.641l0.48,12.202h-3.281L49.577,42.983z"
			/>
	</g>
	<g>
		<path d="M69.814,40.562V20.381h14.887v4.896h-9.495v3.043h8.105v4.632h-8.105v2.812h9.759v4.797H69.814z"/>
		<path d="M97.505,38.775c-1.324,1.29-2.283,2.084-4.764,2.084c-3.342,0-6.352-2.448-6.352-8.436c0-5.724,2.349-8.139,6.021-8.139
			c1.952,0,3.54,0.563,5.095,2.184v-7.245h5.293v21.338h-5.293V38.775z M97.505,30.504c-0.894-1.191-1.919-1.819-3.209-1.819
			c-1.721,0-2.713,1.059-2.713,3.738c0,2.911,1.158,4.102,2.878,4.102c1.456,0,2.25-0.595,3.044-1.72V30.504z"/>
		<path d="M121.555,37.783c0,6.086-2.778,8.535-8.104,8.535c-2.383,0-5.228-0.53-7.047-1.356l0.695-3.606
			c1.819,0.463,4.07,0.96,5.624,0.96c2.382,0,3.541-1.125,3.541-4.532v-0.1c-1.324,1.621-2.481,2.184-4.962,2.184
			c-3.706,0-6.121-2.515-6.121-7.676c0-5.492,2.118-7.907,6.022-7.907c1.951,0,3.506,0.761,5.061,2.084v-1.787h5.292V37.783z
			 M116.263,30.504c-0.893-1.191-1.886-1.819-3.177-1.819c-1.785,0-2.712,0.893-2.712,3.506c0,2.713,1.125,3.606,2.879,3.606
			c1.455,0,2.216-0.596,3.01-1.753V30.504z"/>
		<path d="M139.157,38.279c-2.415,1.819-4.698,2.58-7.377,2.58c-4.897,0-8.073-2.746-8.073-8.171c0-5.558,3.109-8.403,8.106-8.403
			c4.499,0,7.41,2.614,7.443,7.675c0,0.662-0.033,1.323-0.132,2.15h-10.322c0.364,1.787,1.423,2.646,3.21,2.646
			c2.15,0,3.671-0.396,5.656-1.456L139.157,38.279z M134.724,30.968c-0.132-2.084-1.192-3.011-2.911-3.011
			c-1.754,0-2.747,0.959-3.044,3.011H134.724z"/>
		<path d="M162.711,25.906c-3.109-1.158-4.796-1.522-6.55-1.522c-1.157,0-2.117,0.463-2.117,1.324c0,0.926,0.76,1.29,5.096,2.746
			c4.101,1.39,5.425,2.912,5.425,6.286c0,3.672-2.679,6.12-7.41,6.12c-2.615,0-6.75-1.059-9.529-2.746l2.018-4.202
			c3.078,1.688,5.261,2.349,7.211,2.349c1.192,0,1.853-0.496,1.853-1.356c0-0.86-0.529-1.191-4.433-2.349
			c-3.904-1.158-5.755-3.341-5.755-6.451c0-3.441,2.481-6.055,7.046-6.055c2.58,0,5.16,0.331,8.733,1.919L162.711,25.906z"/>
		<path d="M169.427,17.238c1.555,0,2.979,0.893,2.979,2.68c0,1.819-1.423,2.712-2.979,2.712c-1.554,0-2.977-0.893-2.977-2.712
			C166.45,18.131,167.874,17.238,169.427,17.238z M166.781,40.562V24.583h5.294v15.979H166.781z"/>
		<path d="M185.605,38.775c-1.322,1.29-2.283,2.084-4.764,2.084c-3.34,0-6.352-2.448-6.352-8.436c0-5.724,2.349-8.139,6.021-8.139
			c1.952,0,3.541,0.563,5.094,2.184v-7.245h5.294v21.338h-5.294V38.775z M185.605,30.504c-0.893-1.191-1.917-1.819-3.208-1.819
			c-1.721,0-2.713,1.059-2.713,3.738c0,2.911,1.157,4.102,2.878,4.102c1.456,0,2.25-0.595,3.043-1.72V30.504z"/>
		<path d="M208.599,38.279c-2.415,1.819-4.698,2.58-7.377,2.58c-4.896,0-8.073-2.746-8.073-8.171c0-5.558,3.111-8.403,8.106-8.403
			c4.499,0,7.411,2.614,7.444,7.675c0,0.662-0.033,1.323-0.134,2.15h-10.321c0.364,1.787,1.422,2.646,3.208,2.646
			c2.15,0,3.673-0.396,5.658-1.456L208.599,38.279z M204.166,30.968c-0.132-2.084-1.19-3.011-2.911-3.011
			c-1.754,0-2.746,0.959-3.043,3.011H204.166z"/>
	</g>
	<g>
		<path d="M88.076,57.063v-0.927l-4.731,11.579h-3.242l-4.698-11.579v0.795L75.14,67.716h-5.426l0.794-20.181h6.021l4.698,10.984
			c0.231,0.595,0.397,1.157,0.496,1.521c0.099-0.364,0.265-0.927,0.496-1.521l4.698-10.984h6.021l0.794,20.181h-5.425L88.076,57.063
			z"/>
		<path d="M111.466,65.434c-2.416,1.819-4.698,2.58-7.378,2.58c-4.896,0-8.072-2.745-8.072-8.172c0-5.557,3.11-8.403,8.105-8.403
			c4.499,0,7.411,2.614,7.444,7.676c0,0.661-0.033,1.323-0.132,2.15H101.11c0.365,1.787,1.423,2.646,3.209,2.646
			c2.15,0,3.673-0.396,5.658-1.455L111.466,65.434z M107.033,58.122c-0.132-2.084-1.191-3.011-2.912-3.011
			c-1.753,0-2.746,0.96-3.043,3.011H107.033z"/>
		<path d="M124.302,65.93c-1.324,1.291-2.283,2.084-4.764,2.084c-3.342,0-6.352-2.448-6.352-8.437c0-5.723,2.349-8.139,6.021-8.139
			c1.951,0,3.539,0.563,5.094,2.184v-7.244h5.292v21.338h-5.292V65.93z M124.302,57.658c-0.893-1.189-1.919-1.818-3.21-1.818
			c-1.719,0-2.712,1.059-2.712,3.737c0,2.912,1.159,4.103,2.879,4.103c1.455,0,2.25-0.595,3.043-1.721V57.658z"/>
		<path d="M135.517,44.393c1.555,0,2.979,0.894,2.979,2.68c0,1.819-1.423,2.713-2.979,2.713c-1.554,0-2.977-0.894-2.977-2.713
			C132.54,45.286,133.963,44.393,135.517,44.393z M132.871,67.716V51.737h5.294v15.979H132.871z"/>
		<path d="M142.168,52.631c3.706-0.96,5.326-1.192,6.98-1.192c4.665,0,6.551,1.952,6.551,6.584v9.693h-5.161V65.83
			c-1.291,1.323-2.746,2.184-4.665,2.184c-3.375,0-5.261-1.257-5.261-5.028c0-3.408,2.25-4.963,6.749-4.963h3.177
			c0-1.786-0.496-2.515-2.382-2.515c-1.191,0-2.912,0.198-5.195,0.695L142.168,52.631z M148.057,60.835
			c-1.688,0-2.615,0.166-2.615,1.521c0,1.158,0.828,1.886,2.15,1.886c1.258,0,2.15-0.563,2.945-1.389v-2.019H148.057z"/>
	</g>
</g>
<g id="Layer_2">
	<g>
		<path d="M260.955,49.426h-3.328V35.843l-3.164,0.07v-2.402l6.492-1.16V49.426z"/>
		<path d="M272.135,43.425h-5.824v-2.66h5.824V43.425z"/>
		<path d="M284.697,35.035c-1.539,1.977-2.561,3.877-3.064,5.701s-0.869,4.174-1.096,7.049l-0.152,1.641h-3.34l0.164-1.643
			c0.211-2.557,0.666-4.895,1.365-7.013c0.699-2.119,1.678-4.035,2.936-5.747h-7.195v-2.66h10.383V35.035z"/>
		<path d="M296.639,35.035c-1.539,1.977-2.561,3.877-3.064,5.701s-0.869,4.174-1.096,7.049l-0.152,1.641h-3.34l0.164-1.643
			c0.211-2.557,0.666-4.895,1.365-7.013c0.699-2.119,1.678-4.035,2.936-5.747h-7.195v-2.66h10.383V35.035z"/>
		<path d="M307.326,43.027h1.477v2.66h-1.477v3.739h-3.316v-3.739h-5.66l-0.176-2.074l5.824-11.25h3.328V43.027z M301.197,43.027
			h2.813v-5.895l-0.07-0.012l-0.176,0.316L301.197,43.027z"/>
		<path d="M316.725,43.425H310.9v-2.66h5.824V43.425z"/>
		<path d="M319.549,41.878l0.844-9.516h8.344v2.73h-5.625l-0.363,4.02c0.242-0.242,0.545-0.443,0.908-0.604s0.744-0.248,1.143-0.264
			c1.422-0.023,2.514,0.467,3.275,1.471s1.143,2.416,1.143,4.236c0,1.625-0.432,2.985-1.295,4.079s-2.096,1.641-3.697,1.641
			c-1.359,0-2.533-0.436-3.521-1.307s-1.467-2.053-1.436-3.545l0.023-0.059l3.234-0.176c0,0.766,0.156,1.361,0.469,1.788
			c0.313,0.426,0.723,0.639,1.23,0.639c0.586,0,1.012-0.279,1.277-0.838c0.266-0.559,0.398-1.292,0.398-2.198
			c0-1.008-0.148-1.805-0.445-2.391s-0.75-0.879-1.359-0.879c-0.461,0-0.816,0.125-1.066,0.375s-0.422,0.582-0.516,0.996
			L319.549,41.878z"/>
		<path d="M331.49,41.878l0.844-9.516h8.344v2.73h-5.625l-0.363,4.02c0.242-0.242,0.545-0.443,0.908-0.604s0.744-0.248,1.143-0.264
			c1.422-0.023,2.514,0.467,3.275,1.471s1.143,2.416,1.143,4.236c0,1.625-0.432,2.985-1.295,4.079s-2.096,1.641-3.697,1.641
			c-1.359,0-2.533-0.436-3.521-1.307s-1.467-2.053-1.436-3.545l0.023-0.059l3.234-0.176c0,0.766,0.156,1.361,0.469,1.788
			c0.313,0.426,0.723,0.639,1.23,0.639c0.586,0,1.012-0.279,1.277-0.838c0.266-0.559,0.398-1.292,0.398-2.198
			c0-1.008-0.148-1.805-0.445-2.391s-0.75-0.879-1.359-0.879c-0.461,0-0.816,0.125-1.066,0.375s-0.422,0.582-0.516,0.996
			L331.49,41.878z"/>
		<path d="M343.432,41.878l0.844-9.516h8.344v2.73h-5.625l-0.363,4.02c0.242-0.242,0.545-0.443,0.908-0.604s0.744-0.248,1.143-0.264
			c1.422-0.023,2.514,0.467,3.275,1.471s1.143,2.416,1.143,4.236c0,1.625-0.432,2.985-1.295,4.079s-2.096,1.641-3.697,1.641
			c-1.359,0-2.533-0.436-3.521-1.307s-1.467-2.053-1.436-3.545l0.023-0.059l3.234-0.176c0,0.766,0.156,1.361,0.469,1.788
			c0.313,0.426,0.723,0.639,1.23,0.639c0.586,0,1.012-0.279,1.277-0.838c0.266-0.559,0.398-1.292,0.398-2.198
			c0-1.008-0.148-1.805-0.445-2.391s-0.75-0.879-1.359-0.879c-0.461,0-0.816,0.125-1.066,0.375s-0.422,0.582-0.516,0.996
			L343.432,41.878z"/>
		<path d="M361.314,43.425h-5.824v-2.66h5.824V43.425z"/>
		<path d="M373.514,36.886c0,0.859-0.193,1.617-0.58,2.273s-0.916,1.168-1.588,1.535c0.766,0.391,1.367,0.938,1.805,1.641
			s0.656,1.512,0.656,2.426c0,1.586-0.457,2.801-1.371,3.645s-2.117,1.266-3.609,1.266s-2.699-0.424-3.621-1.271
			s-1.383-2.061-1.383-3.639c0-0.914,0.219-1.725,0.656-2.432s1.043-1.252,1.816-1.635c-0.68-0.367-1.211-0.879-1.594-1.535
			s-0.574-1.414-0.574-2.273c0-1.508,0.43-2.68,1.289-3.516s1.992-1.254,3.398-1.254s2.541,0.418,3.404,1.254
			S373.514,35.378,373.514,36.886z M370.479,44.515c0-0.766-0.152-1.373-0.457-1.822s-0.707-0.674-1.207-0.674
			c-0.508,0-0.91,0.225-1.207,0.674s-0.445,1.057-0.445,1.822c0,0.781,0.148,1.393,0.445,1.834c0.297,0.441,0.703,0.662,1.219,0.662
			c0.5,0,0.9-0.221,1.201-0.662C370.328,45.908,370.479,45.296,370.479,44.515z M370.162,37.044c0-0.697-0.115-1.25-0.346-1.657
			s-0.564-0.611-1.002-0.611s-0.77,0.2-0.996,0.599c-0.227,0.4-0.34,0.956-0.34,1.668c0,0.721,0.115,1.287,0.346,1.698
			s0.564,0.617,1.002,0.617s0.77-0.204,0.996-0.611S370.162,37.773,370.162,37.044z"/>
		<path d="M385.725,42.734c0,2.273-0.451,3.999-1.354,5.174s-2.111,1.764-3.627,1.764c-1.531,0-2.75-0.588-3.656-1.764
			s-1.359-2.901-1.359-5.174v-3.668c0-2.266,0.451-3.99,1.354-5.174s2.115-1.775,3.639-1.775s2.738,0.592,3.645,1.775
			s1.359,2.908,1.359,5.174V42.734z M382.396,38.773c0-1.375-0.145-2.379-0.434-3.012s-0.691-0.93-1.207-0.891h-0.07
			c-0.523-0.039-0.926,0.258-1.207,0.891s-0.422,1.637-0.422,3.012v4.23c0,1.391,0.145,2.404,0.434,3.042
			c0.289,0.637,0.695,0.932,1.219,0.885h0.07c0.516,0.047,0.914-0.246,1.195-0.879c0.281-0.633,0.422-1.649,0.422-3.047V38.773z"/>
		<path d="M397.338,36.886c0,0.859-0.193,1.617-0.58,2.273s-0.916,1.168-1.588,1.535c0.766,0.391,1.367,0.938,1.805,1.641
			s0.656,1.512,0.656,2.426c0,1.586-0.457,2.801-1.371,3.645s-2.117,1.266-3.609,1.266s-2.699-0.424-3.621-1.271
			s-1.383-2.061-1.383-3.639c0-0.914,0.219-1.725,0.656-2.432s1.043-1.252,1.816-1.635c-0.68-0.367-1.211-0.879-1.594-1.535
			s-0.574-1.414-0.574-2.273c0-1.508,0.43-2.68,1.289-3.516s1.992-1.254,3.398-1.254s2.541,0.418,3.404,1.254
			S397.338,35.378,397.338,36.886z M394.303,44.515c0-0.766-0.152-1.373-0.457-1.822s-0.707-0.674-1.207-0.674
			c-0.508,0-0.91,0.225-1.207,0.674s-0.445,1.057-0.445,1.822c0,0.781,0.148,1.393,0.445,1.834c0.297,0.441,0.703,0.662,1.219,0.662
			c0.5,0,0.9-0.221,1.201-0.662C394.152,45.908,394.303,45.296,394.303,44.515z M393.986,37.044c0-0.697-0.115-1.25-0.346-1.657
			s-0.564-0.611-1.002-0.611s-0.77,0.2-0.996,0.599c-0.227,0.4-0.34,0.956-0.34,1.668c0,0.721,0.115,1.287,0.346,1.698
			s0.564,0.617,1.002,0.617s0.77-0.204,0.996-0.611S393.986,37.773,393.986,37.044z"/>
		<path d="M409.549,42.734c0,2.273-0.451,3.999-1.354,5.174s-2.111,1.764-3.627,1.764c-1.531,0-2.75-0.588-3.656-1.764
			s-1.359-2.901-1.359-5.174v-3.668c0-2.266,0.451-3.99,1.354-5.174s2.115-1.775,3.639-1.775s2.738,0.592,3.645,1.775
			s1.359,2.908,1.359,5.174V42.734z M406.221,38.773c0-1.375-0.145-2.379-0.434-3.012s-0.691-0.93-1.207-0.891h-0.07
			c-0.523-0.039-0.926,0.258-1.207,0.891s-0.422,1.637-0.422,3.012v4.23c0,1.391,0.145,2.404,0.434,3.042
			c0.289,0.637,0.695,0.932,1.219,0.885h0.07c0.516,0.047,0.914-0.246,1.195-0.879c0.281-0.633,0.422-1.649,0.422-3.047V38.773z"/>
	</g>
	<g>
	</g>
	<g>
	</g>
	<g>
	</g>
	<g>
	</g>
	<g>
	</g>
	<g>
	</g>
</g>
</svg>
